<?xml version="1.0" encoding="utf-8"?>
<!-- Generator: Adobe Illustrator 21.1.0, SVG Export Plug-In . SVG Version: 6.00 Build 0)  -->
<svg version="1.1" id="Layer_1" xmlns="http://www.w3.org/2000/svg" xmlns:xlink="http://www.w3.org/1999/xlink" x="0px" y="0px"
	 viewBox="0 0 100 100" style="enable-background:new 0 0 100 100;" xml:space="preserve">
<style type="text/css">
	.st0{fill:#FFFFFF;}
</style>
<g>
	<path d="M198.3,25.8c1,1,6.1-0.4,6.1-0.4l26-6.3c1.7-1.1,2.4-1.9,2.4-3.3c0-2.8,0-4.9-0.7-7.4l-46.5-25.9l10.6,37.6
		C196.2,20.1,197.3,24.8,198.3,25.8z"/>
</g>
<path d="M205,27.6c-1.7,0.2-3.6,0.9-5.4,1.3c-3,0.6-4.7-2.4-5.4-4.9c-0.2-0.8-0.4-1.6-0.6-2.5l-33.2,8.1l42.8,23.9l8.8-4L205,27.6z"
	/>
<path d="M161.1,26.3l22.6-41.4c0,0,9.8,33.3,9.4,33.3C192.7,18.2,161.1,26.3,161.1,26.3z"/>
<path d="M209.4,27l5.4,20.2c0,0,17.6-23,18-26.6L209.4,27z"/>
<g>
	<path class="st0" d="M50,53.5l36.1-5c0.5-3.7-1.2-7.5-4.7-9.4L42.3,18c-2.9-1.6-6.4-1.4-9.1,0.2L50,53.5z"/>
	<path class="st0" d="M50.4,59.6l-4,0.5l-1.7-3.6L29,23.4L15.4,48.7c-2.4,4.4-0.7,10,3.7,12.4l39.1,21.1c4.4,2.4,10,0.7,12.4-3.7
		l12.7-23.5L50.4,59.6z"/>
</g>
<path d="M-78.2,148.3h-58.3c-6.6,0-12-5.4-12-12V96.1c0-6.6,5.4-12,12-12h58.3c6.6,0,12,5.4,12,12v40.2
	C-66.2,142.9-71.6,148.3-78.2,148.3z"/>
<rect x="-180.2" y="100.5" transform="matrix(0.7071 0.7071 -0.7071 0.7071 33.874 126.2749)" width="89.5" height="7.1"/>
<rect x="-122" y="100.5" transform="matrix(0.7071 -0.7071 0.7071 0.7071 -96.1838 -24.1543)" width="89.5" height="7.1"/>
<path d="M-46.5-4.8h-58.3c-6.6,0-12-5.4-12-12v-40.2c0-6.6,5.4-12,12-12h58.3c6.6,0,12,5.4,12,12v40.2C-34.5-10.2-39.9-4.8-46.5-4.8
	z"/>
<polygon points="-22.1,-66.8 -73.8,-28.9 -125.5,-66.8 -130,-59.7 -78.3,-21.8 -73.8,-18.5 -69.4,-21.8 -17.7,-59.7 "/>
</svg>
