<?xml version="1.0" encoding="utf-8"?>
<!-- Generator: Adobe Illustrator 21.1.0, SVG Export Plug-In . SVG Version: 6.00 Build 0)  -->
<svg version="1.1" id="Layer_1" xmlns="http://www.w3.org/2000/svg" xmlns:xlink="http://www.w3.org/1999/xlink" x="0px" y="0px"
	 viewBox="0 0 50 50" style="enable-background:new 0 0 50 50;" xml:space="preserve">
<style type="text/css">
	.st0{fill:#5C398A;}
</style>
<path class="st0" d="M41.5,16.1c-1.2,0.5-2.5,0.9-3.8,1c1.4-0.8,2.5-2.1,2.9-3.7c-1.3,0.7-2.7,1.3-4.2,1.6c-1.2-1.3-2.9-2.1-4.9-2.1
	c-3.7,0-6.7,2.9-6.7,6.7c0,0.5,0.1,1,0.2,1.6c-5.5-0.3-10.4-2.9-13.7-7c-0.5,1-0.9,2.1-0.9,3.4c0,2.3,1.2,4.3,2.9,5.5
	c-1.1,0-2.1-0.4-3-0.8v0.1c0,3.2,2.3,6,5.3,6.5c-0.5,0.2-1.1,0.3-1.7,0.3c-0.5,0-0.8,0-1.3-0.1c0.8,2.7,3.3,4.6,6.2,4.6
	c-2.3,1.7-5.1,2.8-8.2,2.8c-0.5,0-1.1,0-1.6-0.1c2.9,1.9,6.4,3,10.2,3c12.3,0,19-10.2,19-19c0-0.3,0-0.5,0-0.8
	C39.5,18.6,40.6,17.4,41.5,16.1"/>
</svg>
