<?xml version="1.0" encoding="utf-8"?>
<!-- Generator: Adobe Illustrator 21.1.0, SVG Export Plug-In . SVG Version: 6.00 Build 0)  -->
<svg version="1.1" id="Layer_1" xmlns="http://www.w3.org/2000/svg" xmlns:xlink="http://www.w3.org/1999/xlink" x="0px" y="0px"
	 viewBox="0 0 40 40" style="enable-background:new 0 0 40 40;" xml:space="preserve">
<style type="text/css">
	.st0{fill:none;}
	.st1{fill:none;stroke:#FFFFFF;stroke-miterlimit:10;}
	.st2{fill:#FFFFFF;}
</style>
<line class="st0" x1="-128.9" y1="-47.3" x2="-129.6" y2="-68.9"/>
<path class="st1" d="M-143.9-68.3l-3.1,21.6c0,0,10.3-2.8,13.7-2.5s4.4,1.9,4.4,1.9s5.3-3,10.5-2.2c5.3,0.8,5.5,0.8,5.5,0.8
	l-3.3-19.5c0,0-7.4-6.1-13.5-0.7C-129.6-68.9-136.4-73.6-143.9-68.3z"/>
<path class="st2" d="M-112.8-49l-0.2-0.2l0.1,0.5c0,0-0.2,0-5.5-0.8c-5.3-0.8-10.5,2.2-10.5,2.2s-1-1.7-4.4-2
	c-3.2-0.3-12.4,2.2-13.6,2.5l-0.6,0.5c0,0,12.5-2.7,14.6-1.3c2.1,1.3,1.9,2.6,1.9,2.6s2.4,0.7,3.7,0c0,0,0.5-3.8,5.6-3.8
	s9.6,1.4,9.6,1.4L-112.8-49z"/>
<path class="st2" d="M-126.4-60.3c0,0,0.4,1.9-0.7,2.6s-4.1,1-4.7-0.5c-0.6-1.5-1.4-6,3.4-6.7c4.8-0.7,8.3,2.5,7,5.2
	c-1.3,2.6-2.2,7.8-7.5,7.6c-5.3-0.2-7.5-4.1-7-6.7s1.3-7.2,4.2-8.2s1,1.4,0.2,1.9s-4.6,5.6-2.5,8.3c2.1,2.7,6.1,4.2,7.9,2.8
	c1.9-1.4,4.1-5.3,2.7-7c-1.4-1.7-3.6-2.5-5.1-1c-1.5,1.4-2.1,2.9-0.8,3c1.3,0.1,2-0.8,1.9-1.7C-127.6-61.7-126.4-60.3-126.4-60.3z"
	/>
<path class="st2" d="M15.2,17.3c3.7-3.7,11.6-8.4,11.6-8.4s4.1,0.7,5.8,2.7l0.7,2.3c0,0,0.2,0.8-0.8,1.5c-1,0.7-4.7,2.5-4.7,2.5
	s-1.5,0.2-2.9-0.6L24,15.6c0,0-2.3,0.3-5.7,3.8c-1.6,1.7-3.4,3.6-3.5,6.1l1.9,2.1c0,0,0.2,2.4-1.5,4.9c-1.8,2.5-3.6,2-3.6,2L9.6,33
	c0,0-1.7-3.6-1.9-4.6C7.7,28.4,11.8,20.7,15.2,17.3z"/>
</svg>
