<?xml version="1.0" encoding="utf-8"?>
<!-- Generator: Adobe Illustrator 22.1.0, SVG Export Plug-In . SVG Version: 6.00 Build 0)  -->
<svg version="1.1" id="Layer_1" xmlns="http://www.w3.org/2000/svg" xmlns:xlink="http://www.w3.org/1999/xlink" x="0px" y="0px"
	 viewBox="0 0 600 209.7" style="enable-background:new 0 0 600 209.7;" xml:space="preserve">
<style type="text/css">
	.st0{fill:url(#SVGID_1_);}
	.st1{fill:#77A028;}
	.st2{fill:#FFFFFF;}
</style>
<radialGradient id="SVGID_1_" cx="301.4" cy="101.7" r="220.2324" gradientTransform="matrix(1 0 0 0.5 0 50.85)" gradientUnits="userSpaceOnUse">
	<stop  offset="0.2452" style="stop-color:#495930;stop-opacity:0.5"/>
	<stop  offset="0.9598" style="stop-color:#96AA79;stop-opacity:0"/>
</radialGradient>
<ellipse class="st0" cx="301.4" cy="101.7" rx="295.9" ry="97.2"/>
<g>
	<path class="st1" d="M278.8,45.4c0.5,0,1,0,1.6,0c0.5,0,0.9,0,1.3,0c0.1,0,0.1,0,0.2,0c1.6-0.4,2.9-0.9,4.1-1.4
		c0.3-0.1,0.5-0.5,0.5-0.8v-8.5c0-0.5-0.4-0.9-0.9-0.9h-7c-0.5,0-0.9,0.4-0.9,0.9V37c0,0.5,0.4,0.9,0.9,0.9h3.1c0,0.1,0,0.1,0,0.2
		c0,0.8,0.1,2.4,0,3c-0.4,0.2-1.3,0.3-2.3,0.3c-0.7,0-1.3-0.1-1.8-0.2c-3.2-0.8-4.6-2.1-5.5-5.3c-0.1-0.5-0.4-1.4-0.3-2.1
		c0.7-3.2,2-5,4.2-5.8c0.7-0.3,1.5-0.4,2.5-0.4c2.6,0,4.8,0.9,5.4,1.8c0.2,0.2,0.5,0.4,0.8,0.4c0.5,0,0.9-0.4,0.9-0.9v-3.1
		c0-0.1,0-0.2-0.1-0.3c-0.3-0.8-1.1-0.9-1.6-1c-0.1,0-0.2-0.1-0.3-0.1c-1.4-0.6-3.6-0.9-5.5-0.9c-1.1,0-2.1,0.1-3,0.4
		c-4.5,1.3-7.2,4.1-8.3,8.8c-0.5,2.1,0.1,4.5,0.7,6C269.8,43.1,273.5,45.4,278.8,45.4z"/>
	<path class="st1" d="M332,45.4c0.5,0,1,0,1.5,0s0.9,0,1.3,0c0.1,0,0.1,0,0.2,0c1.6-0.4,2.9-0.9,4.1-1.4c0.3-0.1,0.5-0.5,0.5-0.8
		v-8.5c0-0.5-0.4-0.9-0.9-0.9h-7c-0.5,0-0.9,0.4-0.9,0.9V37c0,0.5,0.4,0.9,0.9,0.9h3.1c0,0.1,0,0.1,0,0.2c0,0.8,0.1,2.4,0,3
		c-0.4,0.2-1.3,0.3-2.3,0.3c-0.7,0-1.3-0.1-1.8-0.2c-3.2-0.8-4.6-2.1-5.5-5.3c-0.1-0.5-0.4-1.4-0.3-2.1c0.7-3.2,2-5,4.2-5.8
		c0.7-0.3,1.5-0.4,2.5-0.4c2.6,0,4.8,0.9,5.4,1.8c0.2,0.2,0.4,0.4,0.7,0.4h0.1c0.5,0,0.9-0.4,0.9-0.9v-3.1c0-0.1,0-0.2-0.1-0.3
		c-0.3-0.8-1.1-0.9-1.6-1c-0.1,0-0.2-0.1-0.3-0.1c-1.4-0.6-3.6-0.9-5.5-0.9c-1.1,0-2.1,0.1-3,0.4c-4.5,1.3-7.2,4.1-8.3,8.8
		c-0.5,2.1,0.1,4.5,0.7,6C323,43.1,326.7,45.4,332,45.4z"/>
	<path class="st1" d="M200.1,26C200.2,26,200.2,26,200.1,26c0.1,0.2,0.2,0.3,0.2,0.4s0.1,0.3,0.1,0.4v11.7c0,0.5,0,1-0.1,1.6
		c-0.1,1.5-0.2,3.1,0.2,4.2c0.1,0.4,0.5,0.6,0.8,0.6h1.3c0.9,0,1.7,0,2.5,0l0,0c4.2,0,8.5-0.3,10.1-4.5c0.7-1.8,0.5-4-0.5-5.5
		c-0.6-0.9-1.5-1.3-2.3-1.6l0,0c0.8-0.7,1.4-1.8,1.6-3c0.4-2.1-0.4-4.2-1.9-5.3c-1.8-1.3-4.9-1.5-7.4-1.5c-1.1,0-2.2,0-3.3,0.1
		c-0.6,0-1.1,0-1.7,0c-0.3,0-0.6,0.2-0.8,0.4c-0.2,0.3-0.2,0.6,0,0.9C199.5,25.6,199.9,25.8,200.1,26z M205.4,41v-5
		c0.2,0,0.5,0,0.7,0c3.1,0,4.3,0.5,4.7,1.9c0.1,0.4-0.1,1.2-0.2,1.6C209.9,40.8,208.5,41,205.4,41z M205.4,27.7c1.2,0,3.1,0,3.7,0.7
		c0.1,0.1,0.1,0.2,0.2,0.4c0.1,0.2,0.2,0.4,0.3,0.5c0,1-0.2,1.7-0.6,2c-0.5,0.5-1.5,0.7-3.4,0.7c-0.1,0-0.1,0-0.2,0V27.7z"/>
	<path class="st1" d="M217.5,25.9c0.3,0.2,0.4,0.4,0.4,0.6c0.3,0.9,0.2,2.4,0.1,3.7c0,0.6-0.1,1.2-0.1,1.7v12.2
		c0,0.5,0.4,0.9,0.9,0.9h3.1c0.5,0,0.9-0.4,0.9-0.9c0-0.6,0-1.4-0.1-2.4c-0.1-1.8-0.2-4,0-5.4c0.5,0,1,0.1,1.4,0.2
		c1.3,0.7,4.6,5.8,5.6,7.8c0.1,0.3,0.5,0.5,0.8,0.5h3.4c0.3,0,0.6-0.2,0.8-0.5s0.2-0.6,0-0.9c-1.1-1.9-2.4-3.9-4.2-6.4
		c-0.1-0.2-0.2-0.4-0.4-0.6c-0.4-0.7-0.9-1.4-1.5-1.9c0.1,0,0.1-0.1,0.2-0.1c0.6-0.4,1.3-0.8,1.7-1.4c0.8-1.2,1.1-2.7,0.8-4.3
		c-0.3-1.7-1.4-3.4-2.7-4.2c-0.5-0.3-1-0.4-1.6-0.6c-0.4-0.1-0.8-0.2-1-0.3c-0.1-0.1-0.3-0.1-0.5-0.1h-8.2c-0.3,0-0.6,0.2-0.8,0.5
		s-0.1,0.6,0,0.9C217,25.4,217.3,25.7,217.5,25.9z M226.7,30.4c-0.4,1.7-1.2,2.2-3.8,2.2c0-1.7,0.1-3.3,0.1-4.9c0.1,0,0.1,0,0.2,0
		c1.9,0,2.9,0.3,3.3,1C226.8,29.1,226.9,29.8,226.7,30.4z"/>
	<path class="st1" d="M236.1,26.1c0.2,0.2,0.3,0.3,0.4,0.5c0.3,1.1,0.2,2.6,0.2,4.1c0,0.5,0,1.1,0,1.6v12c0,0.5,0.4,0.9,0.9,0.9h3.1
		c0.5,0,0.9-0.4,0.9-0.9V24.6c0-0.5-0.4-0.9-0.9-0.9h-4.4c-0.3,0-0.5,0.1-0.7,0.3s-0.2,0.5-0.2,0.8
		C235.4,25.4,235.8,25.8,236.1,26.1z"/>
	<path class="st1" d="M244.9,26c0.2,0.2,0.4,0.4,0.4,0.5c0.3,0.9,0.2,2.4,0.1,3.7c0,0.6-0.1,1.2-0.1,1.7v12.2c0,0.5,0.4,0.9,0.9,0.9
		h2.6c0.5,0,0.9-0.4,0.9-0.9V31.5c0.5,0.6,1,1.3,1.2,1.7l0.3,0.5c1,1.4,2.2,2.7,3.3,3.9c1.2,1.3,2.4,2.7,3.5,4.2
		c0.4,0.5,0.8,1,1.2,1.4c0.5,0.5,0.9,0.9,1.3,1.5c0.2,0.3,0.4,0.4,0.7,0.4h2.5c0.5,0,0.9-0.4,0.9-0.9V24.5c0-0.5-0.4-0.9-0.9-0.9
		h-2.6c-0.5,0-0.9,0.4-0.9,0.9V37c-0.7-0.9-1.5-1.9-2-2.7l-0.5-0.7c-0.9-1.1-1.8-2.2-2.7-3.2c-1.1-1.2-2.1-2.3-3-3.5
		c-0.4-0.5-0.8-1-1.2-1.4c-0.5-0.5-0.9-0.9-1.3-1.5c-0.2-0.3-0.4-0.4-0.7-0.4h-4c-0.3,0-0.6,0.2-0.8,0.4c-0.2,0.3-0.2,0.6,0,0.9
		C244.4,25.4,244.7,25.7,244.9,26z"/>
	<path class="st1" d="M289.3,26.1c0.2,0.2,0.3,0.3,0.3,0.4v0.1c0.3,0.8,0.2,2.2,0.1,3.5c0,0.6-0.1,1.2-0.1,1.8
		c0.1,4,0.1,8.2,0.1,12.3c0,0.5,0.4,0.9,0.9,0.9h3.1c0.5,0,0.9-0.4,0.9-0.9V24.6c0-0.5-0.4-0.9-0.9-0.9h-4.4c-0.3,0-0.5,0.1-0.7,0.3
		s-0.2,0.5-0.2,0.8C288.6,25.5,289,25.8,289.3,26.1z"/>
	<path class="st1" d="M298.4,26L298.4,26c0.1,0.2,0.1,0.3,0.2,0.4c0,0.1,0.1,0.3,0.1,0.4v11.7c0,0.5,0,1.1-0.1,1.6
		c-0.1,1.5-0.2,3.1,0.2,4.2c0.1,0.4,0.5,0.6,0.9,0.6h2.6c0.5,0,0.9-0.4,0.9-0.9V31.5c0.7,0.9,1.5,1.9,1.9,2.6l0.4,0.6
		c0.9,1.1,1.8,2.2,2.7,3.3c1.1,1.2,2.2,2.5,3.2,3.9c0.4,0.5,0.8,0.9,1.2,1.4c0.4,0.5,0.9,0.9,1.2,1.4c0.1,0.2,0.4,0.4,0.7,0.4
		c0.5,0,1,0.1,1.5,0.1c0.7,0,1.2-0.1,1.6-0.2c0.4-0.1,0.6-0.5,0.6-0.8V24.6c0-0.5-0.4-0.9-0.9-0.9h-2.6c-0.5,0-0.9,0.4-0.9,0.9v12.5
		c-0.4-0.5-0.9-1.2-1.6-2.2l-0.2-0.3c-1.1-1.4-2.2-2.7-3.4-4c-1.2-1.4-2.5-2.8-3.6-4.4c-0.3-0.4-0.6-0.7-1-1.1s-0.7-0.7-1-1.1
		c-0.2-0.3-0.4-0.4-0.7-0.4h-4c-0.3,0-0.6,0.1-0.7,0.4c-0.2,0.2-0.2,0.5-0.1,0.8C297.7,25.5,298.1,25.8,298.4,26z"/>
	<path class="st1" d="M347.2,27.9h5.3c0.1,5.4,0.1,10.9,0.1,16.3c0,0.5,0.4,0.9,0.9,0.9h3.2c0.5,0,0.9-0.4,0.9-0.9V32.4
		c0-0.5,0-1.1-0.1-1.6c-0.1-1-0.1-2.1,0-2.9h5.4c0.5,0,0.9-0.4,0.9-0.9v-1l0.1,0.1c0.2,0.2,0.3,0.3,0.4,0.5v0.1
		c0.3,0.9,0.3,2.5,0.2,3.8c0,0.6-0.1,1.1-0.1,1.7v12.1c0,0.5,0.4,0.9,0.9,0.9h3.1c0.5,0,0.9-0.4,0.9-0.9v-7.8h8.6v7.8
		c0,0.5,0.4,0.9,0.9,0.9h3.1c0.5,0,0.9-0.4,0.9-0.9V24.6c0-0.5-0.4-0.9-0.9-0.9h-3.1c-0.5,0-0.9,0.4-0.9,0.9v7.6h-8.6v-7.6
		c0-0.5-0.4-0.9-0.9-0.9H364c-0.2,0-0.4,0.1-0.6,0.3c-0.1-0.1-0.3-0.2-0.5-0.2h-15.7c-0.5,0-0.9,0.4-0.9,0.9V27
		C346.3,27.5,346.7,27.9,347.2,27.9z"/>
	<path class="st1" d="M386.3,26.1c0.1,0.1,0.3,0.2,0.3,0.3c0.3,0.7,0.3,2.5,0.2,3.9c0,0.5,0,0.9,0,1.3v12.6c0,0.5,0.4,0.9,0.9,0.9
		h11.7c0.5,0,0.9-0.4,0.9-0.9v-2.4c0-0.5-0.4-0.9-0.9-0.9h-7.7v-4.6h7.2c0.5,0,0.9-0.4,0.9-0.9v-2.3c0-0.5-0.4-0.9-0.9-0.9h-7.2
		v-4.4h7.6c0.5,0,0.9-0.4,0.9-0.9v-2.3c0-0.5-0.4-0.9-0.9-0.9h-13c-0.3,0-0.5,0.1-0.7,0.4c-0.2,0.2-0.2,0.5-0.1,0.8
		C385.5,25.5,385.9,25.8,386.3,26.1z"/>
	<g>
		<path class="st1" d="M229.9,60.1c-1.8,0-3.3,0.2-4.6,0.6c-6.7,2.1-10.8,6.6-12.5,13.9c-0.7,3.1,0.1,6.9,1,9.4
			c2.9,7.4,8.5,11.1,16.6,11.1h0.3c1.4-0.1,2.8-0.2,4.2-0.2c0.1,0,0.2,0,0.2,0c2-0.5,4.3-1.2,6.3-2.3c0.3-0.2,0.5-0.5,0.5-0.8v-14
			c0-0.5-0.4-0.9-0.9-0.9h-10.8c-0.5,0-0.9,0.4-0.9,0.9v3.7c0,0.5,0.4,0.9,0.9,0.9h5.2c0,0.2,0,0.5,0,0.7c0,1.4,0.2,4.5,0,5.4
			c-0.8,0.4-2.4,0.7-4.1,0.7c-1,0-2-0.1-2.7-0.3c-5.2-1.3-7.3-3.5-8.8-9c-0.2-0.6-0.7-2.4-0.4-3.6c1.1-5.3,3.2-8.3,6.8-9.8
			c1.1-0.5,2.4-0.7,4-0.7c3.7,0,7.6,1.4,8.8,3.2c0.2,0.3,0.5,0.4,0.8,0.4h0.2c0.5,0,0.9-0.4,0.9-0.9v-4.9c0-0.1,0-0.2-0.1-0.4
			c-0.4-0.9-1.4-1.2-2.2-1.4c-0.2-0.1-0.4-0.1-0.6-0.2C236.2,60.7,232.9,60.1,229.9,60.1z"/>
		<path class="st1" d="M259.5,81.6c0.1,0.5,0.2,0.9,0.3,1.3c0.3,1.4,0.6,2.6,1.4,3.8c2.5,4.2,8.6,8.5,15.7,8.5l0,0
			c1.5,0,3-0.2,4.4-0.6c2.1-0.5,3.8-1.4,5.4-2.3c0.3-0.2,0.5-0.5,0.5-0.8v-4.9c0-0.4-0.2-0.7-0.5-0.8c-0.1-0.1-0.3-0.1-0.4-0.1
			c-0.2,0-0.4,0.1-0.6,0.2l-0.5,0.4c-1.2,0.9-2.5,1.8-3.9,2.4c-1.6,0.6-3.2,0.8-4.6,0.8l0,0c-8,0-10.3-8.2-10.9-10.7
			c-0.3-1.1,0.1-2.5,0.4-3.4l0.1-0.2c1.3-5.3,3.8-7.9,8.5-9.3c0.5-0.1,1.2-0.2,1.9-0.2c3.6,0,8,2,8.8,3.2c0.2,0.3,0.5,0.4,0.8,0.4
			h0.2c0.5,0,0.9-0.4,0.9-0.9v-4.9c0-0.1,0-0.3-0.1-0.4c-1.2-2.7-8.8-3-12.1-3c-0.4,0-0.7,0-1.1,0c-0.2,0-0.4,0.1-0.5,0.2
			c-0.5,0.4-1.3,0.5-2.2,0.6c-0.8,0.1-1.7,0.3-2.4,0.6c-4.4,2-7.9,5.8-9.3,10.2C258.7,74.8,258.7,78.7,259.5,81.6z"/>
		<path class="st1" d="M167,81.6c0.2-0.4,0.4-0.8,0.6-1.1c0.7-1,1.4-2.1,2.1-3.1c0.7-1,1.5-2.1,2.2-3.2c0.3-0.4,0.5-0.8,0.7-1.2
			v20.3c0,0.5,0.4,0.9,0.9,0.9h5c0.5,0,0.9-0.4,0.9-0.9V61.7c0-0.5-0.4-0.9-0.9-0.9h-4.3c-0.2,0-0.4,0.1-0.5,0.1
			c-0.4,0.3-0.8,0.9-2,3c-0.3,0.6-0.6,1.1-0.8,1.3c-1.1,1.7-2.2,3.5-3.3,5.2c-0.7,1.1-1.3,2.1-2,3.2c-0.2,0.3-0.4,0.6-0.7,1
			s-0.6,0.7-0.9,1.2c-1.4-2.3-2.9-4.5-4.3-6.8c-1.7-2.6-3.3-5.3-5-7.9c-0.2-0.3-0.5-0.4-0.8-0.4h-6.8c-0.3,0-0.6,0.1-0.8,0.4
			c-0.2,0.2-0.2,0.6-0.1,0.9c0.2,0.7,0.7,1.2,1.1,1.5c0.4,0.4,0.6,0.6,0.7,1c0.5,1.6,0.3,3.9,0.2,6.2c0,1-0.1,1.9-0.1,2.8v19.8
			c0,0.5,0.4,0.9,0.9,0.9h4.5c0.5,0,0.9-0.4,0.9-0.9V73.1c0.9,1.4,1.8,2.7,2.8,4c1.6,2.2,3.3,4.5,4.4,7.1c0.2,0.3,0.5,0.6,0.9,0.6
			C165.5,84.8,166.3,83,167,81.6z"/>
		<path class="st1" d="M182.7,94.3h4.1c0.2,0,0.4-0.1,0.5-0.1c0.6-0.4,0.8-1.2,1-2c0.1-0.3,0.1-0.6,0.2-0.8c1-2.3,2-4.7,3-6.7h11.3
			c0.2,0.3,0.3,0.9,0.4,1.3c0.1,0.4,0.2,0.8,0.4,1.2c0.3,0.7,0.7,1.4,1,2.2c0.7,1.4,1.4,2.8,1.8,4.3c0.1,0.4,0.5,0.7,0.9,0.7h5
			c0.3,0,0.6-0.1,0.8-0.4c0.2-0.2,0.2-0.5,0.2-0.8c-0.7-2.6-1.9-5.1-3.1-7.5c-0.5-1.1-1-2.1-1.5-3.1c-1.9-4.8-3.9-9.5-5.8-14
			c-1-2.4-2-4.8-3-7.2c-0.1-0.4-0.5-0.6-0.9-0.6h-3.5c-0.4,0-0.8,0.3-0.9,0.7c-0.3,1.2-0.9,2.5-1.5,3.6c-0.3,0.7-0.7,1.4-0.9,2
			c-1.2,2.9-2.4,5.8-3.5,8.7c-0.8,2-1.6,4-2.4,6c-0.4,1-0.8,2.3-1.3,3.6c-0.9,2.6-1.8,5.5-2.9,7c-0.1,0.2-0.2,0.4-0.2,0.6v0.5
			C181.7,93.9,182.1,94.3,182.7,94.3z M193.4,79.2c0.4-1.6,1.1-3,1.8-4.5c0.6-1.2,1.1-2.3,1.6-3.6c0.4,1.1,0.9,2.2,1.4,3.3
			c0.3,0.6,0.5,1.2,0.8,1.9c0.2,0.4,0.4,0.7,0.5,1.1c0.3,0.6,0.6,1.1,0.8,1.7C198.1,79.2,195.8,79.2,193.4,79.2z"/>
		<path class="st1" d="M247.6,73.2c0.1,6.7,0.1,13.5,0.1,20.1c0,0.5,0.4,0.9,0.9,0.9h4.7c0.5,0,0.9-0.4,0.9-0.9V61.7
			c0-0.5-0.4-0.9-0.9-0.9h-6.8c-0.3,0-0.6,0.1-0.7,0.4c-0.2,0.2-0.2,0.5-0.2,0.8c0.2,1,0.8,1.5,1.2,1.9c0.3,0.3,0.5,0.5,0.6,0.7
			c0.5,1.5,0.4,3.9,0.2,6C247.7,71.5,247.6,72.4,247.6,73.2z"/>
		<path class="st1" d="M370.9,94c1,0.3,3.7,0.9,6.2,0.9c0.9,0,1.7-0.1,2.4-0.2c8.5-1.7,12.9-5.5,15.2-13.1c0.8-2.3,0.8-6.6,0-9
			c-0.3-1.1-1.1-3.1-2.1-4.8c-2.4-3.5-6.4-6.1-11.6-7.5h-0.1c-0.9-0.1-1.7-0.2-2.5-0.2c-0.8-0.1-1.6-0.1-2.5-0.2h-0.1
			c-0.2,0-0.3,0-0.5,0.1c-0.4,0.2-1.9,0.4-3,0.5c-1.3,0.1-2.5,0.2-3.2,0.5c-4.7,1.6-8.8,5.2-10.7,9.5c-3.5,7.9,0.2,17.2,5.8,21
			C366.3,92.8,368.4,93.4,370.9,94z M372.1,66.5c0.7-0.2,1.3-0.5,2-0.7h0.3c6,0,9.5,1.5,11.8,5.2c0.5,0.7,0.7,1.5,0.9,2.4
			c0.1,0.4,0.2,0.9,0.4,1.4c0.8,3.1,0.5,6.1-1,8.6c-1.7,2.8-4.7,4.9-8.3,5.8c-0.5,0.1-1,0.2-1.6,0.2c-2.1,0-4.1-0.7-4.6-1
			c-4.4-1.7-9.6-7.4-7.1-14.5c0.9-2.6,2.9-5.1,5.2-6.5C370.7,67,371.4,66.8,372.1,66.5z"/>
		<path class="st1" d="M341.1,60.7h-7.7c-0.3,0-0.6,0.2-0.8,0.4c-0.2,0.3-0.2,0.6-0.1,0.9c0.3,0.7,0.9,1.1,1.2,1.3
			c0.2,0.1,0.3,0.2,0.4,0.3c0.1,0.4,0.3,0.7,0.4,1.1c0.1,0.2,0.1,0.3,0.2,0.5v19c0,0.8,0,1.6-0.1,2.6c-0.1,2.4-0.3,5,0.4,6.7
			c0.1,0.4,0.5,0.6,0.9,0.6h19c0.5,0,0.9-0.4,0.9-0.9v-3.8c0-0.5-0.4-0.9-0.9-0.9H342V61.7C342,61.1,341.6,60.7,341.1,60.7z"/>
		<path class="st1" d="M403,60.5h-7.3c-0.3,0-0.6,0.2-0.8,0.4c-0.2,0.3-0.2,0.6-0.1,0.9c0.3,0.8,1,1.4,1.6,1.9
			c0.5,0.4,0.9,0.8,1.1,1.2c1.9,2.9,3.3,6.7,4.7,10.3c0.8,2,1.6,4.1,2.5,6c0.6,1.3,1.3,2.6,2,4.1c1.5,2.8,3,5.7,3.6,8.3
			c0.1,0.4,0.4,0.6,0.7,0.7c0.6,0.1,1.2,0.1,1.9,0.1c0.1,0,0.3,0,0.4-0.1c0.6-0.3,1.1-1.2,2.7-5.4c0.3-0.9,0.6-1.7,0.8-2
			c1.3-2.8,2.6-5.7,4-8.5c1.3-2.9,2.7-5.7,4-8.5c0.4-0.9,0.7-1.8,1-2.8c0.6-1.7,1.2-3.5,2.2-4.6c0.2-0.2,0.2-0.4,0.2-0.6v-0.5
			c0-0.5-0.4-0.9-0.9-0.9h-5.2c-0.4,0-0.7,0.2-0.9,0.6c-2.7,6.4-5.8,13.7-8.7,20.7c-0.2-0.5-0.4-1.1-0.6-1.6
			c-0.5-1.5-1.1-3.1-1.8-4.7c-0.7-1.6-1.5-3.3-2.2-4.9c-1.4-3.1-2.9-6.3-4.2-9.5C403.7,60.7,403.4,60.5,403,60.5z"/>
		<path class="st1" d="M452.7,88.4h-14V80h13.1c0.5,0,0.9-0.4,0.9-0.9v-3.7c0-0.5-0.4-0.9-0.9-0.9c-1,0-2.3,0.1-3.7,0.1
			c-1.7,0.1-3.6,0.1-5.4,0.1s-3.2-0.1-4.1-0.2c0-0.7-0.1-1.4-0.1-2.2c-0.1-2.1-0.3-4.4,0.1-6.1c4.6,0.1,9.2,0.1,13.7,0.1
			c0.5,0,0.9-0.4,0.9-0.9v-3.7c0-0.5-0.4-0.9-0.9-0.9h-22c-0.3,0-0.6,0.2-0.8,0.4s-0.2,0.6-0.1,0.9c0.3,0.7,0.8,1.2,1.2,1.5
			c0.4,0.4,0.7,0.6,0.8,1c0.5,1.6,0.4,3.9,0.3,6.2c-0.1,1-0.1,1.9-0.1,2.8v19.8c0,0.5,0.4,0.9,0.9,0.9h20.1c0.5,0,0.9-0.4,0.9-0.9
			v-3.9C453.7,88.8,453.2,88.4,452.7,88.4z"/>
		<g>
			<path class="st1" d="M334.1,110.2c10.7,0.4,24.8,0.7,39.9,0.7s29.2-0.2,39.9-0.7c17.4-0.7,17.4-1.5,17.4-2.6s0-1.9-17.4-2.6
				c-10.7-0.4-24.8-0.7-39.9-0.7s-29.2,0.2-39.9,0.7c-17.4,0.7-17.4,1.5-17.4,2.6S316.7,109.5,334.1,110.2z"/>
			<path class="st1" d="M282.7,107.6c0-1.1,0-1.9-17.4-2.6c-10.7-0.4-24.8-0.7-39.9-0.7s-29.2,0.2-39.9,0.7
				c-17.4,0.7-17.4,1.5-17.4,2.6s0,1.9,17.4,2.6c10.7,0.4,24.8,0.7,39.9,0.7s29.2-0.2,39.9-0.7C282.7,109.5,282.7,108.7,282.7,107.6
				z"/>
			<path class="st1" d="M310.5,104.1c-0.2-0.6-0.4-1.2-0.8-1.8c-1-1.5-2.3-2.5-3.8-3c-0.5-0.1-1.2-0.2-1.7-0.2c-0.3,0-0.6,0-0.8-0.1
				c-0.1,0-0.1,0-0.2,0c-0.2,0-0.3,0-0.5,0.1c-0.1,0.1-0.6,0.1-0.8,0.1c-0.4,0-0.8,0.1-1.2,0.2c-1.1,0.5-2.1,1.2-2.9,2v-1.2
				c0-0.5-0.4-0.9-0.9-0.9h-9.2c-0.5,0-0.8,0.3-0.9,0.8c-0.1,0.6-0.1,1-0.1,1.5s0.4,0.9,0.9,0.9h2.7v9.2c0,0.5,0.4,0.9,0.9,0.9h1.9
				c0.5,0,0.9-0.4,0.9-0.9v-9.2h2.7c0.1,0,0.1,0,0.2,0c-0.2,0.3-0.4,0.6-0.5,1c-1.4,3.3,0.6,7,2.5,8.3c0.7,0.5,1.5,0.7,2.2,0.9
				c0.5,0.2,1.4,0.4,2.2,0.4c0.4,0,0.9-0.1,1.2-0.1c3.2-0.7,4.9-2.2,5.8-5.2C310.8,106.7,310.9,105.3,310.5,104.1z M300.1,104.8
				c0.3-0.9,0.9-1.8,1.6-2.2c0.2-0.1,0.4-0.1,0.6-0.2s0.4-0.1,0.6-0.2c2.2,0,2.9,0.7,3.4,1.5c0.7,1.1,0.9,2.3,0.4,3.5
				s-1.5,2.1-2.7,2.4c-0.2,0-0.4,0.1-0.7,0.1c-1.3,0-2.1-0.8-2.5-1.4C300.1,107.2,299.8,105.9,300.1,104.8z"/>
			<g>
				<path class="st1" d="M306.1,177.7l-0.6-0.7l0,0l0,0l-0.6-0.7c-1.8,1.4-3.3,2.6-5.5,3.5c-1.3,0.5-2.5,0.7-3.7,0.7
					c-4.7,0-8.2-3.5-10-6.7c5.1-3.7,11-12,13.2-18.9c1.9-5.8,0.3-11.5-3.6-13.5c-0.1-0.1-0.3-0.1-0.4-0.1c-0.3,0-0.6,0.2-0.8,0.4
					c-0.7,1.1-2.5,2.6-3.7,3.3c-0.3,0.2-0.5,0.5-0.5,0.8v0.5c0,0.3,0.1,0.6,0.4,0.7c0.2,0.1,0.4,0.2,0.6,0.2c0.1,0,0.2,0,0.2,0
					c0.2,0,0.4-0.1,0.6-0.2c0.5-0.1,0.9-0.3,1.3-0.3c0.3,0,0.5,0.1,0.7,0.2c0,0,0.1,0,0.1,0.1c1.7,1.1,1.9,5.2,1,8.1
					c-1.6,5.4-6,11.9-10.5,15.5c-3.2-7.6-4-13.6-4.5-17.6l-0.1-0.8c-0.5-3.7-0.7-9.2-0.7-11.2c0.6-0.3,1.8-1,2.7-1.4
					c1.2-0.6,2.2-1.1,2.7-1.4c4.5-3,7.3-6,8.6-9.1c1.1-2.7,1-5.3-0.3-7.2c-1.3-1.9-3.5-3-6.2-3c-0.3,0-0.7,0-1,0.1
					c-6.6,0.7-10.5,9.5-10.9,10.5c-1.8,4.5-2.1,7.8-2.2,9.4v0.5c-0.1,0.7,0,1.2,0,1.8v0.1c-0.8,0.4-2.1,1-2.5,1.3
					c-1.1,0.7-2.3,1.3-3.5,1.9c-1.2,0.6-2.5,1.3-3.7,2c-6.9,4.2-13.2,8.7-15.4,18.5c-1.1,4.9,1.3,9.2,2,10.4c3.1,4.9,8.9,8,15.1,8
					c2,0,4-0.3,5.9-0.8c2.1-0.6,4.1-1.1,5.9-1.9c2.1-0.9,3.7-1.9,5-3c2.5,2.3,7.4,6.5,13.5,6.5c1.6,0,3.2-0.3,4.7-0.8
					c2.9-1,5-2.6,7-5.1c0.2-0.2,0.3-0.6,0.1-1.2C306.5,177.1,306.5,177.5,306.1,177.7z M279.1,137.6c0.3-6.6,2.9-13.7,6.9-14.9
					c0.2,0,0.3,0,0.5,0c0.7,0,0.9,0.1,1.6,0.7c0.7,1,0.9,2.1,0.6,3.5c-0.7,3.5-4.4,7.6-7.7,9.8c-0.3,0.3-0.8,0.4-1.2,0.6
					C279.5,137.3,279.3,137.5,279.1,137.6z M254.8,170.6c-0.5-1.8-0.8-5-0.3-7c2.1-7.8,7.4-12.3,12.4-15.6c1.6-1,3.6-2,5.3-2.7
					c0,3.3,0.1,7,0.5,8.9c0.5,2,0.8,4.1,1.1,6c0.8,5.1,1.5,9.9,4.8,14.3c-2.8,2-8.4,4.6-13.4,4.6c-1.6,0-3.1-0.3-4.4-0.8
					C257.6,176.9,256.1,175,254.8,170.6z"/>
				<path class="st1" d="M337.7,133.1c-3.5-8.9-11.5-9.7-20.1-9.7c-1.5,0-3.1,0-4.7,0.1h-1.8c-0.3,0-0.6,0.1-0.7,0.4
					c-0.2,0.2-0.2,0.5-0.2,0.8c0.2,0.9,0.7,1.4,1.1,1.8c0.3,0.3,0.5,0.5,0.6,0.8c0.5,1.5,0.4,4,0.2,6.2c-0.1,1-0.1,1.9-0.1,2.8V156
					c0,0.5,0.4,0.9,0.9,0.9h0.9c1.2,0,2.3,0,3.4,0l0,0c9.5,0,16-0.7,20.1-9.4c1.1-2.4,2.3-6,1.6-9.5
					C338.6,136.1,338.2,134.5,337.7,133.1z M332,143.8c-0.3,1.2-0.9,2.6-1.6,3.6c-1.8,2.7-5,3.9-10.8,3.9c-0.3,0-0.7,0-1,0V129
					c8.5,0,11.8,2.2,13.5,8.6C332.5,139.1,332.5,141.9,332,143.8z"/>
				<path class="st1" d="M358.9,151h-11.7c0.1-2.7,0.1-5.5,0.1-8.2h10.9c0.5,0,0.9-0.4,0.9-0.9v-3.7c0-0.5-0.4-0.9-0.9-0.9h-10.9
					v-8.2h11.2c0.5,0,0.9-0.4,0.9-0.9v-3.7c0-0.5-0.4-0.9-0.9-0.9h-18.8c-0.3,0-0.6,0.2-0.8,0.4c-0.2,0.3-0.2,0.6-0.1,0.9
					c0.3,0.7,0.7,1.1,1.1,1.3c0.1,0.1,0.2,0.2,0.3,0.3c0.1,0.4,0.2,0.7,0.3,1.1c0.1,0.2,0.1,0.4,0.2,0.5v19c0,0.8,0,1.7-0.1,2.6
					c-0.1,2.4-0.2,4.9,0.3,6.7c0.1,0.4,0.5,0.7,0.9,0.7h17.1c0.5,0,0.9-0.4,0.9-0.9V152C359.9,151.4,359.5,151,358.9,151z"/>
				<path class="st1" d="M387.1,148c-2.2-6.1-4.2-11.3-6.1-16.2c-0.3-0.9-0.8-1.8-1.2-2.7c-0.8-1.6-1.5-3.3-1.8-4.9
					c-0.1-0.4-0.5-0.8-0.9-0.8h-3.5c-0.2,0-0.4,0.1-0.6,0.2c-0.4,0.3-0.6,0.7-1.1,2.9c-0.1,0.3-0.1,0.5-0.2,0.6l-0.6,1.6
					c-0.5,1.3-1,2.6-1.5,4c-1.3,3.3-2.6,6.7-4,10c-0.7,1.8-1.5,3.7-2.2,5.5c-0.3,0.8-0.5,1.6-0.8,2.4c-0.5,1.7-1,3.4-1.8,4.5
					c-0.1,0.2-0.2,0.4-0.2,0.6v0.5c0,0.5,0.4,0.9,0.9,0.9h3.8c0.2,0,0.3,0,0.5-0.1c0.8-0.5,1.1-1.6,1.3-2.7c0.1-0.4,0.2-0.8,0.3-1
					l0.4-1c0.7-1.6,1.3-3.3,2-4.8h10.6c0.1,0.2,0.2,0.6,0.2,0.9c0.1,0.3,0.1,0.6,0.3,0.9l0.1,0.2c1,2.3,2.1,4.8,3,7
					c0.1,0.4,0.5,0.6,0.9,0.6h4.4c0.3,0,0.5-0.1,0.7-0.3s0.3-0.5,0.2-0.8c-0.3-2-1.2-3.9-2.1-5.7C387.8,149.5,387.4,148.8,387.1,148
					z M375.2,134.6c0.5,1.2,1,2.4,1.5,3.6c0.5,1.2,1.1,2.5,1.6,3.8c-0.6,0.1-1.4,0.2-2.2,0.2c-1.1,0-2.3-0.1-3.4-0.2
					c-0.3,0-0.6,0-0.9-0.1c0.4-1.5,1-2.9,1.7-4.4c0.5-1.2,1.1-2.4,1.5-3.7C375,134.2,375.1,134.4,375.2,134.6z"/>
				<path class="st1" d="M409.2,123.3h-22.9c-0.5,0-0.9,0.4-0.9,0.9c-0.1,1.4-0.1,2.6-0.1,3.8c0,0.5,0.4,0.9,0.9,0.9h8.2V156
					c0,0.5,0.4,0.9,0.9,0.9h4.7c0.5,0,0.9-0.4,0.9-0.9v-27.1h8.2c0.5,0,0.9-0.4,0.9-0.9v-3.7C410.2,123.8,409.8,123.3,409.2,123.3z"
					/>
				<path class="st1" d="M437.7,123.3h-4.4c-0.5,0-0.9,0.4-0.9,0.9v12.9h-13.5v-12.9c0-0.5-0.4-0.9-0.9-0.9h-6.6
					c-0.3,0-0.6,0.2-0.8,0.4c-0.2,0.3-0.2,0.6-0.1,0.9c0.3,0.7,0.7,1.2,1.1,1.6s0.7,0.8,0.8,1.3c0.1,3.4,0.2,6.4,0.2,9.3v19.1
					c0,0.5,0.4,0.9,0.9,0.9h4.4c0.5,0,0.9-0.4,0.9-0.9v-13.3h13.5v13.3c0,0.5,0.4,0.9,0.9,0.9h4.4c0.5,0,0.9-0.4,0.9-0.9v-31.7
					C438.7,123.8,438.3,123.3,437.7,123.3z"/>
				<path class="st1" d="M183.4,151.2H171c0.1-9,0.1-18,0.1-26.8c0-0.5-0.4-0.9-0.9-0.9H163c-0.3,0-0.6,0.2-0.8,0.4
					c-0.2,0.3-0.2,0.6-0.1,0.9c0.3,0.7,0.8,1.2,1.2,1.5c0.4,0.4,0.6,0.6,0.7,1c0.5,1.6,0.4,3.9,0.2,6.2c-0.1,1-0.1,1.9-0.1,2.8V156
					c0,0.5,0.4,0.9,0.9,0.9h18.3c0.5,0,0.9-0.4,0.9-0.9v-3.9C184.4,151.6,183.9,151.2,183.4,151.2z"/>
				<path class="st1" d="M194.5,123.3h-7.1c-0.3,0-0.6,0.1-0.8,0.4c-0.2,0.2-0.2,0.6-0.1,0.8c0.3,0.9,0.8,1.4,1.3,1.8
					c0.4,0.3,0.6,0.6,0.7,0.9c0.5,1.5,0.4,3.9,0.3,6c-0.1,1-0.1,1.9-0.1,2.7v20c0,0.5,0.4,0.9,0.9,0.9h4.9c0.5,0,0.9-0.4,0.9-0.9
					v-31.7C195.4,123.8,195,123.3,194.5,123.3z"/>
				<path class="st1" d="M222.4,123.3h-20.5c-0.3,0-0.6,0.1-0.8,0.4c-0.2,0.2-0.2,0.5-0.2,0.8c0.3,1,0.9,1.4,1.3,1.7
					c0.1,0.1,0.2,0.2,0.3,0.2c0.1,0.4,0.2,0.7,0.4,1.1c0.1,0.2,0.1,0.4,0.2,0.5v19c0,0.8,0,1.6-0.1,2.6c-0.1,2.4-0.3,4.9,0.3,6.7
					c0.1,0.4,0.5,0.6,0.9,0.6h4.9c0.5,0,0.9-0.4,0.9-0.9v-13.3h11.8c0.5,0,0.9-0.4,0.9-0.9V138c0-0.5-0.4-0.9-0.9-0.9H210v-8.2h12.2
					c0.5,0,0.9-0.4,0.9-0.9v-3.7C223.3,123.7,222.9,123.3,222.4,123.3z"/>
				<path class="st1" d="M248.8,154c0.2-0.2,0.3-0.4,0.3-0.7v-1.2c0-0.5-0.4-0.9-0.9-0.9h-13.1v-8.3h12.2c0.5,0,0.9-0.4,0.9-0.9
					v-3.7c0-0.5-0.4-0.9-0.9-0.9h-12.2v-8.2H248c0.5,0,0.9-0.4,0.9-0.9v-3.7c0-0.5-0.4-0.9-0.9-0.9h-21.1c-0.3,0-0.6,0.2-0.8,0.4
					c-0.2,0.3-0.2,0.6-0.1,0.9c0.3,0.7,0.8,1.1,1.2,1.5c0.3,0.2,0.6,0.5,0.7,0.8c0.6,1.2,0.5,4.5,0.4,6.7c0,0.7,0,1.3,0,1.9v20.5
					c0,0.5,0.4,0.9,0.9,0.9h16.5c0.3,0,0.6-0.2,0.8-0.4C246.8,156.1,248.3,154.5,248.8,154z"/>
			</g>
		</g>
		<g>
			<path class="st1" d="M330.9,51.7c-0.2-0.5-0.7-1.2-1.8-1.5c-0.2-0.1-0.5-0.1-0.7-0.1c-0.7,0-1.4,0.2-1.7,0.3
				c-1.4,0.5-2.1,1-3,1.7l-0.1,0.1l-0.6,0.7c-0.9,0.7-1.5,1.7-2,2.7c-0.1,0.2-0.2,0.4-0.4,0.6c-1.3,2-2,4.7-2.8,7.2
				c-0.3,0.9-0.5,1.8-0.8,2.7c-0.2,0.6-0.4,1.2-0.6,1.9c-0.2,0.7-0.4,1.3-0.6,2c-0.1,0.2-0.1,0.4-0.2,0.6s-0.2,0.4-0.2,0.7h-2.9
				c-0.2,0-0.4,0.1-0.5,0.2c-0.4,0.3-0.6,1.3-0.6,1.3c0,0.3,0,0.5,0.2,0.7s0.4,0.3,0.7,0.3h2.5c-0.1,0.2-0.3,0.8-0.3,0.8
				c-0.3,0.7-0.5,1.4-0.7,2.1c-0.1,0.4-0.3,0.8-0.4,1.2c-0.3,1-0.6,2-0.9,3c-0.4,1.4-0.9,2.9-1.4,4.4c-0.1,0.4-0.2,0.7-0.3,1.1
				c-0.1,0.3-0.1,0.5-0.2,0.8c-0.5,1.4-1.1,3.1-1.7,4.6c-0.1,0.1-0.1,0.3-0.2,0.4c-0.1,0.3-0.2,0.5-0.3,0.7
				c-0.4,0.7-0.8,1.2-1.1,1.7c-0.1,0.1-0.2,0.2-0.3,0.3c-0.2,0.2-0.5,0.4-0.7,0.8c-0.2,0.3-0.2,0.6,0,0.9c0.1,0.4,0.5,0.6,0.8,0.6
				c0.1,0,0.2,0,0.2,0c1.2-0.3,3.1-1.8,3.7-2.7c0.1-0.1,0.2-0.2,0.3-0.3c0.2-0.2,0.4-0.3,0.5-0.6c0.8-1.1,1.5-2.2,1.9-3.2
				c0.4-0.9,0.7-1.9,1-2.9c0.1-0.4,0.3-0.8,0.4-1.2c0.4-1.1,0.7-2.2,1.1-3.3c0.3-1.1,0.7-2.2,1.1-3.3c0.2-0.7,0.5-1.4,0.7-2.2
				c0.2-0.8,0.5-1.5,0.7-2.3c0.1-0.2,0.1-0.4,0.2-0.6c0.1-0.3,0.2-0.6,0.3-0.9h3.1c0.2,0,0.4-0.1,0.5-0.2c0.3-0.2,0.4-0.5,0.5-0.7
				c0-0.1,0-0.1,0.1-0.1c0.1-0.2,0.1-0.4,0.1-0.5c0-0.5-0.4-0.9-0.9-0.9H320c0.1-0.2,0.1-0.3,0.2-0.5c0.1-0.3,0.2-0.6,0.3-0.8
				c0.4-1.2,0.8-2.4,1.2-3.6c0.4-1.2,0.8-2.5,1.2-3.7c0.2-0.7,0.4-1.4,0.6-2.1c0.1-0.4,0.2-0.8,0.4-1.2c0.1,0,0.1,0,0.2,0
				s0.1,0,0.2,0c0.5-0.1,0.9-0.3,1.2-0.5c0.1-0.1,0.2-0.1,0.3-0.2c0.8-0.3,1.8-0.8,2.8-1.5c0.2-0.1,0.3-0.3,0.5-0.4
				c0.1-0.1,0.2-0.1,0.2-0.2c0.5-0.4,1.2-1,1.7-1.7C331.1,53.8,331.3,52.6,330.9,51.7z M327.9,53.9c-0.8,1.3-2.2,2.2-3.7,3
				c0.2-0.5,0.4-0.9,0.7-1.3l0.3-0.4c0.6-1,1-1.7,2-2.2l0.1-0.1c0.2-0.1,0.5-0.3,0.6-0.3c0.2,0,0.3,0.1,0.3,0.1
				C328.3,52.9,328.2,53.4,327.9,53.9z"/>
			<path class="st1" d="M310.4,80.3L310.4,80.3l0.4-1.6c0.5-1.8-0.2-3.6-0.5-4.3c-1.1-2.5-3.3-3.7-6.9-3.7h-0.2c-0.1,0-0.1,0-0.2,0
				h-0.1c-0.1,0-0.2,0-0.3,0l-1.3,0.3h-0.1c-1.2,0.4-2.3,0.9-3.3,1.7c-1.6,1.2-2.8,2.9-3.4,5c-1.2,3.8,1.2,7.5,4.1,8.4
				c0.7,0.2,1.5,0.4,2.4,0.4c1,0,2.1-0.2,2.9-0.4C307.1,85.1,309.2,83.2,310.4,80.3z M298.5,80.5L298.5,80.5v-1
				c0-0.2,0.1-0.4,0.1-0.6c0.1-0.4,0.1-0.8,0.3-1.1c0.4-1.3,1.5-2.9,2.3-3.5c0.6-0.4,1.2-0.8,1.8-0.9c0.1,0,0.2,0,0.3,0
				c0.2,0,0.5,0,0.7-0.1c1.7,0,2.2,0.6,2.6,2.1c0.1,0.4,0.2,1,0.1,1.4s-0.1,0.7-0.1,1c0,0.2,0,0.4,0,0.6c-0.7,3-1.6,4.4-3.6,5.3
				c-0.3,0.2-1.1,0.5-2,0.5c-0.3,0-0.5,0-0.7-0.1c-0.7-0.2-1.2-0.7-1.5-1.6l-0.1-0.9C298.5,81.3,298.5,80.8,298.5,80.5z"/>
		</g>
	</g>
</g>
<g>
	<path class="st2" d="M299.8,180.6c-7.4,2.7-13-2.5-15.3-7.2c5.4-3.5,11.4-12.2,13.6-18.9c1.6-4.9,0.6-10.5-3.1-12.3
		c-0.9,1.3-2.7,2.8-4.1,3.6c0,0.2,0,0.3,0,0.5c1.1-0.3,2.4-0.9,3.4,0c2.2,1.4,2.4,6.1,1.4,9.2c-1.8,6.2-6.9,13.2-11.6,16.6
		c0,0.1-0.1,0.1-0.1,0.2c-3.9-8.9-4.6-15.6-5.1-19.8c-0.5-4.1-0.8-10.5-0.8-11.8c0.3-0.4,4.9-2.6,5.8-3.1c3.1-2.1,6.7-5,8.2-8.7
		c2.3-5.5-1.4-9.4-6.5-8.9s-8.8,6.8-10.1,10c-2,4.9-2.1,8.3-2.2,9.7c-0.1,0.8,0,1.4,0,2.4c0,0-2.5,1.2-2.9,1.5
		c-2.3,1.4-4.9,2.5-7.2,3.9c-7,4.3-12.9,8.6-15,17.9c-0.9,3.9,0.7,7.7,1.9,9.7c3.4,5.5,11,9.3,20,6.7c2.1-0.6,4-1.1,5.7-1.9
		c1.9-0.9,3.9-2,5.4-3.4c3.5,3.3,10,8.9,17.9,6.1c2.9-1,4.9-2.6,6.5-4.8c0.1-0.2-0.1-0.4,0-0.5C303.7,178.5,302.1,179.7,299.8,180.6
		z M285.8,121.7c1.7-0.1,2,0.2,2.9,1c3.3,4.8-2.9,11.8-7.2,14.7c-1,0.8-2.4,0.9-3.1,1.9c-0.1,0-0.2,0-0.3,0
		C278,132,280.7,123.1,285.8,121.7z M260.5,179.2c-3.8-1.6-5.3-4-6.5-8.2c-0.6-1.9-0.9-5.3-0.3-7.5c2-7.6,7-12.3,12.8-16.2
		c2.1-1.3,4.9-2.6,6.8-3.4c0,2.4-0.1,7.9,0.5,10.2c1.7,7.6,1.2,14.7,6.2,20.7C276.5,177.6,266.9,181.9,260.5,179.2z"/>
	<g>
		<path class="st2" d="M278.8,44.5c1,0,2-0.1,2.9-0.1c1.4-0.4,2.8-0.8,4-1.4c0-2.8,0-5.7,0-8.5c-2.3,0-4.7,0-7,0c0,0.7,0,1.5,0,2.3
			c1.4,0,2.6,0,4,0c0,1,0.3,4.1-0.1,4.8c-0.9,0.6-3.7,0.7-5,0.4c-3.6-0.9-5.1-2.4-6.1-5.9c-0.2-0.6-0.5-1.6-0.3-2.5
			c0.7-3.2,2.1-5.4,4.8-6.5c2.9-1.2,7.7-0.1,9,1.7h0.1c0-1,0-2.1,0-3.1c-0.2-0.5-1-0.5-1.4-0.6c-1.8-0.7-5.5-1.3-7.9-0.5
			c-4.1,1.2-6.7,3.8-7.7,8.1c-0.5,1.9,0.1,4.1,0.6,5.4C270.2,41.9,273.3,44.5,278.8,44.5z"/>
		<path class="st2" d="M332,44.5c1,0,2-0.1,2.9-0.1c1.4-0.4,2.8-0.8,4-1.4c0-2.8,0-5.7,0-8.5c-2.3,0-4.7,0-7,0c0,0.7,0,1.5,0,2.3
			c1.4,0,2.6,0,4,0c0,1,0.3,4.1-0.1,4.8c-0.9,0.6-3.7,0.7-5,0.4c-3.6-0.9-5.1-2.4-6.1-5.9c-0.2-0.6-0.5-1.6-0.3-2.5
			c0.7-3.2,2.1-5.4,4.8-6.5c2.9-1.2,7.7-0.1,9,1.7h0.1c0-1,0-2.1,0-3.1c-0.2-0.5-1-0.5-1.4-0.6c-1.8-0.7-5.5-1.3-7.9-0.5
			c-4.1,1.2-6.7,3.8-7.7,8.1c-0.5,1.9,0.1,4.1,0.6,5.4C323.5,41.9,326.5,44.5,332,44.5z"/>
		<path class="st2" d="M201,25.5c0.1,0.4,0.3,0.8,0.4,1.2c0,4,0,7.8,0,11.8c0,1.7-0.4,4.1,0.1,5.6c6.1,0.1,11.4,0.5,13.1-3.9
			c0.5-1.4,0.5-3.4-0.4-4.7c-0.8-1.2-2.2-1.2-3.3-2c-0.3-0.1-0.1,0-0.3-0.1c3.2-0.8,3.8-5.9,1.2-7.7c-2.3-1.7-7.7-1.3-11.8-1.2
			C200.3,25.2,200.8,25.2,201,25.5z M204.5,26.8c2.1,0,4.4-0.1,5.3,1.1c0.3,0.4,0.4,0.9,0.6,1.2c0.1,3.9-2.2,4.1-5.9,4
			C204.5,30.9,204.5,28.9,204.5,26.8z M204.5,35.1c3.5-0.1,6.4-0.1,7.2,2.5c0.2,0.7-0.1,1.7-0.3,2.2c-1.1,2.3-3.5,2.2-6.9,2.2
			C204.5,39.7,204.5,37.3,204.5,35.1z"/>
		<path class="st2" d="M218.8,26.3c0.5,1.5,0.1,4,0.1,5.7c0,4.1,0,8.1,0,12.2c1,0,2.1,0,3.1,0c0-2.2-0.5-6.9,0.1-8.6
			c0.9,0,1.8,0,2.6,0.4c1.6,0.9,5,6.3,5.9,8.2c1.2,0,2.3,0,3.4,0c-1.3-2.2-2.7-4.3-4.1-6.4c-0.7-1.1-1.4-2.4-2.6-2.9
			c0.4-0.7,2.1-1.3,2.6-2.2c1.7-2.5,0.2-6-1.6-7.2c-0.7-0.5-1.9-0.5-2.6-0.9c-2.7,0-5.5,0-8.2,0C217.9,25.3,218.7,25.5,218.8,26.3z
			 M222.1,26.8c2.3-0.1,4.3,0,5.1,1.4c0.5,0.6,0.6,1.6,0.4,2.4c-0.6,2.6-2.3,3-5.6,2.9C222.1,31.2,222.1,29,222.1,26.8z"/>
		<path class="st2" d="M237.5,32.2c0,4,0,7.9,0,12c1,0,2.1,0,3.1,0c0-6.5,0-13,0-19.5c-1.4,0-2.9,0-4.4,0c0.2,0.7,1,0.9,1.2,1.7
			C237.8,28,237.5,30.4,237.5,32.2z"/>
		<path class="st2" d="M246.2,26.3c0.5,1.5,0.1,4,0.1,5.7c0,4.1,0,8.1,0,12.2c0.9,0,1.8,0,2.6,0c0-5,0-9.8,0-14.8
			c1,0.4,2.5,2.8,3.2,3.7c2.1,2.8,4.7,5.2,6.8,8.1c0.7,1,1.8,1.8,2.5,2.9c0.8,0,1.7,0,2.5,0c0-6.5,0-13,0-19.5c-0.9,0-1.8,0-2.6,0
			c0,4.9,0,9.7,0,14.6c-1.3-0.8-3.2-3.6-4.1-5c-1.8-2.3-4-4.4-5.7-6.8c-0.7-1-1.8-1.8-2.5-2.9c-1.4,0-2.6,0-4,0
			C245.3,25.3,245.9,25.5,246.2,26.3z"/>
		<path class="st2" d="M290.7,44.2c1,0,2.1,0,3.1,0c0-6.5,0-13,0-19.5c-1.4,0-2.9,0-4.4,0c0.2,0.7,1,0.9,1.2,1.6
			c0.5,1.4,0.1,3.9,0.1,5.6C290.7,35.9,290.7,40,290.7,44.2z"/>
		<path class="st2" d="M317.3,44c0-6.5,0-12.9,0-19.4c-0.9,0-1.8,0-2.6,0c0,4.9,0,9.7,0,14.6c-1-0.4-2.8-3.1-3.4-4
			c-2.2-2.9-4.9-5.4-7-8.4c-0.6-0.8-1.4-1.4-2-2.3c-1.4,0-2.6,0-4,0c0.2,0.5,0.6,0.5,0.9,0.9c0.1,0.4,0.3,0.8,0.4,1.2
			c0,4,0,7.8,0,11.8c0,1.7-0.4,4.1,0.1,5.6c0.9,0,1.8,0,2.6,0c0-5,0-9.8,0-14.8c1.3,0.8,3.1,3.5,4,4.8c1.9,2.4,4.1,4.7,5.9,7.2
			c0.7,1,1.7,1.7,2.4,2.8C315.5,44.2,316.6,44.3,317.3,44z"/>
		<path class="st2" d="M353.5,44.2c1.1,0,2.2,0,3.2,0c0-4,0-7.8,0-11.8c0-1.6-0.4-4.1,0.1-5.4c2.1,0,4.1,0,6.1,0c0-0.7,0-1.5,0-2.3
			c-5.2,0-10.4,0-15.7,0c0,0.7,0,1.5,0,2.3c2.1,0,4.1,0,6.2,0C353.5,32.6,353.5,38.4,353.5,44.2z"/>
		<path class="st2" d="M365.3,32.1c0,4.1,0,8,0,12.1c1,0,2.1,0,3.1,0c0-2.9,0-5.9,0-8.7c3.5,0,7,0,10.4,0c0,2.9,0,5.9,0,8.7
			c1,0,2.1,0,3.1,0c0-6.5,0-13,0-19.5c-1,0-2.1,0-3.1,0c0,2.8,0,5.7,0,8.5c-3.5,0-7,0-10.4,0c0-2.8,0-5.7,0-8.5c-1.4,0-2.9,0-4.4,0
			c0.2,0.7,1,0.9,1.2,1.7C365.7,27.9,365.3,30.3,365.3,32.1z"/>
		<path class="st2" d="M387.4,26c0.5,1.2,0.3,4,0.3,5.6c0,4.2,0,8.4,0,12.6c3.9,0,7.7,0,11.7,0c0-0.8,0-1.6,0-2.4
			c-2.9,0-5.8,0-8.6,0c0-2.2,0-4.2,0-6.4c2.7,0,5.4,0,8.1,0c0-0.7,0-1.5,0-2.3c-2.7,0-5.4,0-8.1,0c0-2.1,0-4.1,0-6.2
			c2.8,0,5.7,0,8.5,0c0-0.7,0-1.5,0-2.3c-4.3,0-8.6,0-13,0C386.4,25.3,387.1,25.4,387.4,26z"/>
	</g>
	<g>
		<path class="st2" d="M241.1,77.8c-3.6,0-7.2,0-10.8,0c0,1.2,0,2.5,0,3.7c2.1,0,4.1,0,6.1,0c0,1.6,0.4,6.8-0.2,7.8
			c-1.4,1-5.7,1.2-7.7,0.7c-5.6-1.4-7.9-4-9.5-9.7c-0.3-0.9-0.7-2.7-0.5-4.1c1.1-5.1,3.2-8.7,7.4-10.5c4.4-1.9,12-0.1,14,2.8
			c0.1,0,0.2,0,0.2,0c0-1.6,0-3.3,0-4.9c-0.3-0.7-1.5-0.8-2.3-1c-2.8-1.2-8.6-2-12.2-0.9c-6.3,2-10.2,6.2-11.9,13.2
			c-0.7,3,0.2,6.7,1,8.8c2.5,6.3,7.3,10.5,15.8,10.5c1.5-0.1,3-0.2,4.5-0.2c2.2-0.6,4.3-1.2,6.1-2.2C241.1,87,241.1,82.4,241.1,77.8
			z"/>
		<path class="st2" d="M281.1,93.8c2-0.5,3.6-1.3,5.1-2.2c0-1.6,0-3.3,0-4.9c-1.4,1-2.9,2.2-4.7,2.8c-9.5,3.3-15.1-3-16.7-10.5
			c-0.4-1.4,0.2-3.1,0.5-4.1c1.4-5.5,4.1-8.5,9.2-10c4.1-1,10.4,1.5,11.7,3.4c0.1,0,0.2,0,0.2,0c0-1.6,0-3.3,0-4.9
			c-0.9-2.1-8.7-2.5-12.2-2.4c-1.3,0.9-3.3,0.7-4.7,1.3c-4,1.8-7.4,5.3-8.8,9.7c-0.9,2.7-1,6.5-0.2,9.3c0.5,2,0.7,3.4,1.6,4.9
			C264.8,90.9,272.6,96,281.1,93.8z"/>
		<path class="st2" d="M178.6,93.3c0-10.5,0-21.1,0-31.7c-1.4,0-2.9,0-4.3,0c-0.5,0.3-2,3.4-2.4,4.1c-1.8,2.7-3.5,5.6-5.3,8.4
			c-0.6,1-1.7,1.9-2.1,3.2c-0.2,0-0.3,0-0.5,0c-3.3-5.2-6.7-10.5-10-15.7c-2.3,0-4.5,0-6.8,0c0.4,1,1.5,1.4,1.8,2.6
			c0.7,2.5,0.2,6.3,0.2,9.3c0,6.6,0,13.2,0,19.8c1.5,0,3,0,4.5,0c0-7.9,0-15.6,0-23.5c0.1,0,0.2,0,0.2,0c2.4,5,6.5,8.9,8.8,14
			c2.8,0,3-2.2,4.1-3.9c1.4-2.1,3-4.2,4.3-6.3c0.8-1.2,1.3-2.7,2.3-3.7c0-0.1,0-0.2,0-0.2c0.1,0,0.2,0,0.2,0c0,7.9,0,15.6,0,23.5
			C175.4,93.3,177,93.3,178.6,93.3z"/>
		<path class="st2" d="M198.9,61.7c-1.2,0-2.3,0-3.5,0c-0.5,2.1-1.7,4-2.4,5.8c-2.1,4.9-4,9.9-5.9,14.7c-1.3,3.1-2.5,8.3-4.3,10.8
			c0,0.2,0,0.3,0,0.5c1.4,0,2.7,0,4.1,0c0.5-0.3,0.5-1.8,0.8-2.4c1-2.4,2.2-5,3.2-7.3c4.1,0,8.2,0,12.2,0c0.7,0.4,0.9,2.2,1.3,3
			c0.9,2.1,2.3,4.3,2.9,6.6c1.6,0,3.2,0,5,0c-1-3.7-3.1-7.2-4.5-10.5C204.7,75.6,201.7,68.7,198.9,61.7z M192.3,80.1
			c0.6-4.5,3.9-7.7,4.3-12.3c0.1,0,0.2,0,0.2,0c0.7,2.9,2,5.5,3.1,8.1c0.5,1.2,1.4,2.5,1.6,4.1C198.5,80.1,195.4,80.1,192.3,80.1z"
			/>
		<path class="st2" d="M248.6,93.3c1.5,0,3.2,0,4.7,0c0-10.5,0-21.1,0-31.7c-2.3,0-4.5,0-6.8,0c0.3,1.2,1.4,1.5,1.8,2.6
			c0.8,2.4,0.2,6.3,0.2,9C248.6,79.9,248.6,86.7,248.6,93.3z"/>
	</g>
	<g>
		<path class="st2" d="M393.8,81.3c0.7-2.2,0.7-6.2,0-8.4c-0.5-1.5-1.2-3.2-2-4.5c-2.4-3.5-6.4-5.9-11-7.1c-1.7-0.2-3.3-0.3-5-0.5
			c-1,0.6-5,0.6-6.4,1c-4.5,1.5-8.4,4.9-10.1,9c-3.4,7.6,0.4,16.4,5.5,19.8c1.9,1.3,3.8,1.9,6.4,2.6c1.8,0.5,5.5,1.2,8.2,0.7
			C387.3,92.2,391.5,88.7,393.8,81.3z M378.4,90.1c-2.5,0.6-5.4-0.3-6.8-0.9c-5.1-2-10.2-8.1-7.7-15.7c1-2.9,3.2-5.6,5.7-7.1
			c1.4-0.5,2.9-1,4.3-1.5c6.8-0.1,10.6,1.7,13.1,5.6c0.8,1.2,0.9,2.5,1.4,4.1C390.6,82.8,384.9,88.6,378.4,90.1z"/>
		<path class="st2" d="M354.9,89.4c-4.6,0-9.2,0-13.8,0c0-9.3,0-18.6,0-27.8c-2.6,0-5.2,0-7.7,0c0.4,0.9,1.1,0.9,1.6,1.5
			c0.2,0.7,0.5,1.3,0.7,1.9c0,6.3,0,12.8,0,19.1c0,2.7-0.6,6.7,0.2,9c6.4,0,12.6,0,19,0C354.9,92,354.9,90.7,354.9,89.4z"/>
		<path class="st2" d="M413,93.5c0.6-0.3,2.5-5.9,3-6.9c2.6-5.6,5.4-11.5,8-17.1c1.1-2.4,1.7-5.7,3.4-7.6c0-0.2,0-0.3,0-0.5
			c-1.7,0-3.5,0-5.2,0c-3.2,7.5-6.4,15-9.5,22.4c-0.1,0.4,0,0.2-0.2,0.5c-1.2-2.8-1.9-5.6-3.2-8.4c-2.1-4.7-4.4-9.6-6.4-14.4
			c-2.4,0-4.9,0-7.3,0c0.5,1.1,2,1.9,2.7,3c3,4.6,4.9,11.2,7.3,16.4c1.7,3.8,4.7,8.4,5.7,12.5C411.8,93.5,412.4,93.5,413,93.5z"/>
		<path class="st2" d="M452.4,65.3c0-1.2,0-2.5,0-3.7c-7.4,0-14.6,0-22,0c0.4,1,1.7,1.4,2,2.6c0.8,2.5,0.2,6.3,0.2,9.3
			c0,6.6,0,13.2,0,19.8c6.7,0,13.4,0,20.1,0c0-1.3,0-2.6,0-3.9c-5,0-10,0-14.9,0c0-3.4,0-6.9,0-10.3c4.7,0,9.4,0,14,0
			c0-1.2,0-2.5,0-3.7c-3.5,0-11.2,0.7-14-0.2c0-2.9-0.7-7.4,0.2-10C442.9,65.3,447.7,65.3,452.4,65.3z"/>
	</g>
	<g>
		<path class="st2" d="M309.6,104.4c-0.2-0.6-0.4-1.1-0.7-1.6c-0.8-1.1-1.9-2.2-3.3-2.7c-0.7-0.2-1.8-0.2-2.4-0.3
			c-0.5,0.3-1.6,0.2-2.2,0.4c-1.6,0.7-2.9,1.9-3.6,3.5c-1.2,2.8,0.6,6.1,2.2,7.1c0.6,0.4,1.2,0.6,2,0.8c0.6,0.2,1.9,0.5,2.8,0.2
			c2.8-0.7,4.3-1.9,5.1-4.5C309.8,106.6,309.9,105.3,309.6,104.4z M304.2,110.5c-3.3,0.8-5.9-2.9-5-6c0.4-1.1,1.1-2.2,2.1-2.7
			c0.5-0.2,0.9-0.3,1.4-0.5c2.2,0,3.5,0.6,4.4,1.9C309.2,106.3,307.1,109.8,304.2,110.5z"/>
		<path class="st2" d="M287.7,101.5c1.2,0,2.5,0,3.7,0c0,3.4,0,6.8,0,10.1c0.7,0,1.2,0,1.9,0c0-3.4,0-6.8,0-10.1c1.2,0,2.5,0,3.7,0
			c0-0.5,0-0.9,0-1.3c-3,0-6.2,0-9.2,0C287.7,100.6,287.7,101,287.7,101.5z"/>
	</g>
	<g>
		<path class="st2" d="M170.1,124.4c-2.4,0-4.7,0-7.1,0c0.4,1,1.6,1.4,1.9,2.6c0.8,2.5,0.2,6.3,0.2,9.3c0,6.6,0,13.2,0,19.8
			c6.1,0,12.2,0,18.3,0c0-1.3,0-2.6,0-3.9c-4.5,0-8.9,0-13.4,0C170.1,142.9,170.1,133.7,170.1,124.4z"/>
		<path class="st2" d="M189.4,127c0.9,2.4,0.2,6.3,0.2,9c0,6.6,0,13.4,0,20c1.6,0,3.3,0,4.9,0c0-10.5,0-21.1,0-31.7
			c-2.4,0-4.7,0-7.1,0C187.8,125.5,189,125.8,189.4,127z"/>
		<path class="st2" d="M203.4,125.9c0.2,0.7,0.5,1.3,0.7,1.9c0,6.3,0,12.8,0,19.1c0,2.7-0.6,6.7,0.2,9c1.6,0,3.3,0,4.9,0
			c0-4.7,0-9.5,0-14.2c4.3,0,8.4,0,12.7,0c0-1.2,0-2.5,0-3.7c-4.3,0-8.4,0-12.7,0c0-3.4,0-6.7,0-10.1c4.4,0,8.7,0,13.2,0
			c0-1.2,0-2.5,0-3.7c-6.8,0-13.6,0-20.5,0C202.2,125.2,202.9,125.2,203.4,125.9z"/>
		<path class="st2" d="M234.2,141.8c4.4,0,8.7,0,13.2,0c0-1.2,0-2.5,0-3.7c-4.4,0-8.7,0-13.2,0c0-3.4,0-6.7,0-10.1
			c4.5,0,9.2,0,13.8,0c0-1.2,0-2.5,0-3.7c-7,0-14.1,0-21.1,0c0.4,0.9,1.5,1.2,1.9,2.2c0.9,1.8,0.5,6.5,0.5,9c0,6.8,0,13.6,0,20.5
			c5.5,0,16.5,0,16.5,0c0.3-0.4,1.8-2.1,2.5-2.7c0,0,0-0.6,0-1.2c-4.6,0-9.4,0-14,0C234.2,148.7,234.2,145.2,234.2,141.8z"/>
	</g>
	<path class="st2" d="M336.8,133.4c-3.8-9.9-13.1-9.2-25.8-9c0.3,1.1,1.4,1.5,1.7,2.6c0.8,2.4,0.2,6.4,0.2,9.3c0,6.6,0,13.2,0,19.8
		c12.4,0.1,19.2,0.4,23.5-8.8c0.9-2,2.2-5.5,1.5-9C337.7,136.5,337.4,134.9,336.8,133.4z M332.9,144c-0.3,1.3-1,2.8-1.7,3.9
		c-2.6,3.9-7.3,4.5-13.6,4.3c0-8.1,0-16.1,0-24.2c8.9-0.1,13.3,1.7,15.4,9.3C333.4,139.1,333.5,142,332.9,144z"/>
	<path class="st2" d="M346.4,141.8c3.9,0,7.8,0,11.9,0c0-1.2,0-2.5,0-3.7c-3.9,0-7.8,0-11.9,0c0-3.4,0-6.7,0-10.1
		c4.1,0,8.1,0,12.2,0c0-1.2,0-2.5,0-3.7c-6.3,0-12.5,0-18.8,0c0.3,0.9,0.9,0.9,1.4,1.5c0.2,0.7,0.4,1.3,0.6,1.9c0,6.3,0,12.8,0,19.1
		c0,2.7-0.5,6.7,0.2,9c5.7,0,11.3,0,17.1,0c0-1.3,0-2.6,0-3.9c-4.2,0-8.4,0-12.6,0C346.4,148.7,346.4,145.2,346.4,141.8z"/>
	<path class="st2" d="M380.1,132.2c-0.9-2.5-2.6-5-3.1-7.8c-1.2,0-2.3,0-3.5,0c-0.3,0.2-0.8,2.5-0.9,3c-0.7,1.8-1.4,3.7-2.1,5.6
		c-2,5-4.2,10.4-6.2,15.5c-0.9,2.3-1.4,5.3-2.7,7.1c0,0.2,0,0.3,0,0.5c1.3,0,2.6,0,3.8,0c0.7-0.4,0.9-2.5,1.2-3.2
		c0.9-2.1,1.8-4.5,2.7-6.4c3.8,0,7.8,0,11.6,0c0.6,0.3,0.7,1.7,0.9,2.4c1,2.4,2.1,4.9,3.1,7.3c1.4,0,3,0,4.4,0
		c-0.4-2.7-2.1-5.4-3.1-7.8C384.2,142.8,382.2,137.6,380.1,132.2z M370.6,142.9c0.7-4.3,3.6-7.6,4.1-12c0.9,0.6,0.9,2.4,1.4,3.4
		c1.1,2.7,2.4,5.6,3.5,8.4C377.3,143.5,373.3,143,370.6,142.9z"/>
	<path class="st2" d="M386.3,128c3.1,0,6.1,0,9.1,0c0,9.4,0,18.7,0,28c1.5,0,3.1,0,4.7,0c0-9.4,0-18.7,0-28c3.1,0,6.1,0,9.1,0
		c0-1.2,0-2.5,0-3.7c-7.6,0-15.3,0-22.9,0C386.3,125.6,386.3,126.9,386.3,128z"/>
	<path class="st2" d="M433.3,138.1c-5.1,0-10.2,0-15.4,0c0-4.5,0-9.2,0-13.8c-2.2,0-4.4,0-6.6,0c0.4,1.1,1.6,1.6,2,3
		c0.1,3.1,0.2,6.3,0.2,9.5c0,6.3,0,12.8,0,19.1c1.4,0,3,0,4.4,0c0-4.7,0-9.5,0-14.2c5.1,0,10.2,0,15.4,0c0,4.7,0,9.5,0,14.2
		c1.4,0,3,0,4.4,0c0-10.5,0-21.1,0-31.7c-1.4,0-3,0-4.4,0C433.3,128.9,433.3,133.6,433.3,138.1z"/>
	<ellipse class="st2" cx="374" cy="107.6" rx="56.4" ry="2.3"/>
	<ellipse class="st2" cx="225.4" cy="107.6" rx="56.4" ry="2.3"/>
	<g>
		<path class="st2" d="M329,51.1c-0.6-0.2-1.4,0-1.9,0.2c-1.2,0.5-1.9,0.9-2.8,1.6c-0.2,0.2-0.4,0.5-0.7,0.7c-1,0.8-1.6,2-2.3,3.1
			c-1.6,2.7-2.5,6.5-3.6,9.7c-0.4,1.3-0.8,2.5-1.3,3.8c-0.2,0.6-0.5,1.2-0.6,1.8c-1.2,0-2.4,0-3.6,0c0,0-0.2,0.6-0.3,0.7
			c1.2,0,2.5,0,3.7,0c-0.2,0.7-0.4,1.4-0.7,2c-0.4,1.1-0.7,2.3-1.1,3.3c-0.8,2.5-1.5,5-2.4,7.4c-0.2,0.6-0.3,1.2-0.5,1.8
			c-0.5,1.6-1.1,3.3-1.8,4.7c-0.2,0.5-0.3,0.9-0.6,1.3c-0.4,0.6-0.8,1.2-1.2,1.8c-0.3,0.4-0.8,0.6-1,1c0,0,0,0,0,0.1
			c1-0.3,2.7-1.6,3.2-2.3c0.2-0.3,0.6-0.6,0.8-0.9c0.7-0.9,1.3-1.9,1.8-3c0.6-1.3,0.9-2.6,1.4-4c0.7-2.2,1.4-4.4,2.1-6.6
			c0.5-1.4,0.9-2.9,1.4-4.4c0.2-0.6,0.6-1.4,0.7-2l0,0c1.3,0,2.5,0,3.8,0c0.1-0.1,0.2-0.5,0.3-0.6l0,0c-1.3,0-2.5,0-3.8,0
			c0.2-0.9,0.6-1.7,0.8-2.5c0.8-2.5,1.6-4.9,2.4-7.3c0.8-2.4,1.4-5.2,2.6-7.2c0.8-1.3,1.3-2.3,2.6-3c0.3-0.2,0.8-0.5,1.3-0.4
			c1.4,0.2,1.2,1.8,0.6,2.7c-1.1,1.9-3.1,2.9-5.2,3.8c0,0.1,0,0.2,0,0.3c0.5-0.1,1-0.4,1.4-0.6c1-0.4,1.8-0.9,2.6-1.4
			c0.2-0.2,0.4-0.4,0.7-0.6c0.5-0.4,1.1-0.9,1.5-1.5C330.4,53.2,330.6,51.5,329,51.1z"/>
		<path class="st2" d="M309.5,80c0.1-0.5,0.3-1,0.4-1.5c0.3-1.3-0.1-2.8-0.5-3.7c-1-2.2-3-3.2-6.3-3.2c-0.1,0.1-0.3,0-0.4,0
			c-0.4,0.1-0.9,0.2-1.3,0.3c-1.1,0.4-2.1,0.9-3,1.5c-1.4,1.1-2.5,2.6-3.1,4.6c-1.1,3.5,1.2,6.5,3.6,7.3c1.4,0.5,3.5,0.4,4.8-0.1
			C306.5,84.4,308.5,82.6,309.5,80z M307.5,76.9c-0.1,0.6,0,1.1-0.1,1.6c-0.7,2.9-1.7,4.7-4,5.9c-0.8,0.4-2.2,0.9-3.4,0.5
			c-1.1-0.3-1.8-1.2-2.1-2.3c0-0.3-0.1-0.6-0.1-0.9c-0.1-0.4-0.1-1,0-1.5c0-0.3,0-0.6,0-1c0.1-0.6,0.2-1.3,0.4-1.8
			c0.5-1.4,1.6-3.2,2.6-4c0.6-0.4,1.3-0.8,2-1.1c0.3-0.1,0.8,0,1-0.2c2.4,0,3.1,0.9,3.6,2.8C307.5,75.6,307.6,76.4,307.5,76.9z"/>
	</g>
</g>
<g id="Layer_4">
</g>
</svg>
