<?xml version="1.0" encoding="utf-8"?>
<!-- Generator: Adobe Illustrator 22.1.0, SVG Export Plug-In . SVG Version: 6.00 Build 0)  -->
<svg version="1.1" id="Layer_1" xmlns="http://www.w3.org/2000/svg" xmlns:xlink="http://www.w3.org/1999/xlink" x="0px" y="0px"
	 viewBox="0 0 383 100" style="enable-background:new 0 0 383 100;" xml:space="preserve">
<style type="text/css">
	.st0{fill:#3D4C25;}
	.st1{fill:#98AF7B;}
</style>
<g>
	<path class="st0" d="M277.8,61.9c-0.2,0-0.6-0.1-0.8-0.2c-2.3-0.8-2.3-3.6-2.3-4.9c0-0.3,0.2-0.6,0.4-0.9c0.3-0.3,0.6-0.7,1-1.1
		c0.4-0.5,0.8-0.9,1.1-1.2c0.4-0.4,0.8-0.6,1.2-0.8c0.3-0.2,0.6-0.3,0.8-0.5c0,0,0-0.1,0.1-0.1c0.2-0.2,0.7-1.3,1.1-2.3
		c-1.8,1.1-3.9,2.2-5.6,2.2c-0.7,0-1.4-0.2-1.8-0.5c-1.4-0.5-1.8-1.6-2.1-2.7c-1.8,1.7-4.2,3.1-7,3.1c-0.6,0-1.3-0.1-1.8-0.2
		c-0.3-0.1-0.6-0.2-0.8-0.6c-0.1-0.2-0.2-0.2-0.2-0.4c-0.2-0.4-0.6-0.8-0.8-1.4c-1.8,1.5-4.2,2.8-7.3,2.8c-0.3,0-0.6-0.2-0.8-0.2
		c-0.2-0.2-0.3-0.2-0.5-0.4c-0.6-0.5-1-0.8-1.4-1.5c-0.2-0.2-0.4-0.6-0.5-0.9c-0.2,0.2-0.4,0.3-0.6,0.5c-0.9,0.6-1.9,1.4-3,1.8
		c-1.4,0.5-3.1,0.8-4.6,0.8c-0.2,0-0.2,0-0.5,0c0.2,0.2,0.4,0.6,0.4,0.9v0.4c0,0.3-0.2,0.6-0.3,0.9c-0.9,2-3.6,3.5-6.3,3.5
		c-1.4,0-2.6-0.4-3.5-1c-3-2-5.4-8.1-7.3-12.6c-0.3-0.8-0.6-1.6-1-2.3c-0.2-0.2-0.4-0.7-0.6-1.1c-0.3-0.6-0.6-1.1-1-1.7
		c-0.6,2-1.1,3.9-1.9,5.8c-0.2,0.5-0.3,1.1-0.5,1.7c-0.2,1.1-0.5,2.3-1.2,3.3c-1.2,1.7-4.6,2.7-6.1,2.8c-0.1,0-0.2,0-0.2,0
		c-0.6,0-1-0.3-1.2-0.9c-0.2-0.4-0.2-0.6-0.2-1.2c-0.1-0.3,0.1-0.6,0.2-0.9c0.8-1,1.2-2.5,1.7-4c0.2-0.8,0.5-1.7,0.8-2.4
		c1.1-2.9,2-5.9,2.8-9.1c0.4-1.4,0.7-2.8,1.1-4.3l0.2-0.4c0.5-1.8,1.1-3.9,0.9-5.5c-0.6-0.2-1.4-0.7-1.7-1.5c-0.2-0.6,0-1.4,0.6-1.7
		c0.2-0.2,0.4-0.2,0.5-0.2c0.6-0.4,1.4-0.6,1.9-0.7c0.3-0.1,0.7-0.2,0.8-0.2c0.2-0.2,0.4-0.2,0.6-0.2c0.4,0,0.8-0.1,1.1-0.1
		c0.7,0,2.7,0,3.4,1.8c1,1.5,0.6,4.4-1.3,9.6c-0.2,0.8-0.5,1.6-0.8,2.3c3.3-1.3,9.5-5.8,10.9-8.3c0.7-1.1,0.8-2.7,0.3-3.9
		c-0.2-0.4-0.2-0.8,0.1-1.2c0.2-0.3,0.6-0.6,1-0.6c0.4-0.2,0.8-0.3,1.1-0.4c0.2,0,0.2-0.1,0.3-0.1c0.2-0.2,0.5-0.2,0.6-0.2
		c0.6,0,1.5,0.1,2.3,0.5c0.9,0.3,1.3,1,1.5,1.4c0.2,0.2,0.2,0.3,0.3,0.5c0.2,0.2,0.4,0.6,0.4,0.9c-0.1,6.1-5.2,9.2-9,11.6
		c-0.5,0.2-0.9,0.5-1.3,0.8c-0.5,0.2-1,0.5-1.5,0.7c-0.8,0.3-1.8,0.8-2.1,1.2c0.1,0.6,0.7,2,1.8,4.3c0.2,0.2,0.2,0.5,0.3,0.6
		c0.4,0.7,0.8,1.5,1.1,2.4c1.4,3,3.4,7.3,5.4,8.3c0.3,0.2,0.6,0.2,1,0.2c0.5,0,0.9-0.1,1.4-0.2h0.1c-2.4-0.5-4.2-1.7-4.9-3.6
		c-2.6-6.1,3.3-13.1,6.9-14.9c1-0.5,1.4-0.6,3-1c0.1,0,0.2-0.1,0.2-0.1c0.5,0,0.9,0,1.3,0c2,0,4.1,0.2,5.1,2.4
		c1.1,1.9,0.2,4.4-0.6,5.5c-2,3.2-4.8,4.5-9.5,4.5c-0.1,1.3,0.5,2,0.7,2c0.2,0.1,0.2,0.2,0.4,0.2c0.3,0.2,0.6,0.4,1.1,0.4
		c1.9,0,4.5-2.3,5.8-3.3c0.4-0.3,0.7-0.6,0.9-0.7s0.4-0.2,0.6-0.2c0.2-0.7,0.4-1.4,0.6-2.1c0.1-0.2,0.2-0.5,0.2-0.8
		c0.3-1.1,0.6-2.3,0.9-3.3c0.9-3.1,1.7-6.1,3-8.9c0.2-0.3,0.2-0.8,0.4-1.1c0.3-1.1,0.7-2.3,1.6-3.2l0.1-0.1c1-0.8,2.7-1.2,5.3-1.2
		c0.2,0,0.4,0,0.6,0c0.4,0,0.7,0.2,1,0.5c0.2,0.3,0.3,0.7,0.2,1c-0.2,0.8-0.7,1.6-1.5,3c-0.5,0.7-1,1.5-1.1,2
		c-0.8,2-1.4,3.9-1.8,5.9c-0.3,1.3-0.7,2.7-1.1,4l-0.2,0.5c-0.7,2.1-1.4,4.3-1.7,6.8c1.4-0.7,3.3-2.3,4.1-3.3
		c0.2-0.6,0.2-1.2,0.4-1.8c0.2-0.7,0.3-1.4,0.5-2.1c0-0.1,0-0.1,0-0.2c0.8-2.5,1.7-5.5,2.6-8.2c0.2-0.5,0.4-1,0.5-1.5
		c1.1-3.5,2.2-6.7,8.2-6.7h0.2c0.7,0,1.3,0.6,1.3,1.3V24c0,0.4-0.2,0.8-0.5,1c-1.1,0.8-1.6,2.3-2.2,4.1c-0.2,0.7-0.5,1.4-0.8,2.2
		c-2.3,5.7-3.8,10.8-4,14.6c0,0,0,0,0.1,0c3.1-1,7-6.4,6.1-11.7c-0.1-0.3,0-0.7,0.2-1c0.2-0.2,0.5-0.5,0.9-0.5
		c0.4-0.1,0.8-0.2,1.1-0.2c0.7-0.2,1.5-0.3,2.5-0.3c0.5,0,1,0.1,1.4,0.2c0.2,0.1,0.5,0.2,0.6,0.3l0.2,0.2c0.2,0.2,0.3,0.5,0.4,0.8
		c0.4,3.3-0.7,6.3-1.6,8.9c-0.3,1-0.6,1.8-0.9,2.7c-0.2,0.6-0.2,0.8-0.2,1c0,0,0.1,0,0.2,0c0.5-0.2,0.9-0.5,1.4-0.8l0.2-0.2
		c1.7-1.2,3.6-3.9,4.3-5.9c0.3-0.8,0.6-1.9,0.9-3.2c0.1-0.3,0-0.9,0-1.2c-0.1-0.6-0.2-1.1,0.2-1.6c0.1-0.2,0.2-0.3,0.3-0.4
		c0.7-0.6,1.8-0.9,3.1-0.9c0.7,0,1.4,0.1,2.1,0.2c0.4,0.1,0.7,0.3,0.9,0.7c0.5,1,0.5,2.1,0.5,3.2c0,0.2-0.1,0.5-0.2,0.8
		c-0.3,0.4-0.5,1.2-0.6,2c-0.1,0.6-0.2,1.2-0.4,1.8l-0.5,1.6c-0.4,1.1-0.7,2.3-1.1,3.3c0.2-0.2,0.5-0.5,0.8-0.6
		c0.8-0.6,1.4-1.4,2.2-2.3c0.5-0.6,1-1.1,1.5-1.7c0.2-0.2,0.6-0.4,0.9-0.4c0.2,0,0.3,0,0.5,0.2c0.5,0.2,0.8,0.6,0.8,1.1
		c0,0.3,0,0.6,0.1,1c0,0.4,0.1,0.8,0.1,1.1c0,0.3-0.2,0.6-0.3,0.8c-0.5,0.6-1,1.2-1.4,1.8c-1.1,1.4-2.3,3-3.8,4.3
		c-0.4,0.2-0.8,0.6-1.4,1c-0.8,0.5-2.2,1.4-2.6,1.8c-0.5,0.6-0.9,1.4-1.3,2.1c-0.5,0.8-0.9,1.7-1.4,2.4
		C282.5,59.1,279.6,61.9,277.8,61.9L277.8,61.9z M244.5,36.9c-1.4,1.3-2.6,2.6-3.1,4.3c1-0.2,1.8-0.8,2.3-1.4
		C244.3,38.9,244.6,37.9,244.5,36.9z M115.3,53.3c-0.7,0-1.3-0.6-1.3-1.3v-0.2c-0.8-2.3-1-9.9-1.1-14.9c-0.9,1.5-1.7,2.9-1.7,2.9
		c-1,1.5-2.1,3.1-3.1,4.6c-0.8,1.1-1.6,2.3-2.3,3.4c-0.2,0.4-0.5,0.8-0.8,1.2c-1.1,1.9-2.3,4.3-6.1,4.3l0,0c-0.3,0-0.6-0.2-0.9-0.4
		c-0.2-0.2-0.4-0.6-0.4-1c0-2.3,0.2-4.5,0.5-6.8c0.4-4.8,0.8-9.9-0.2-14.1c-0.2-0.6-0.2-1.2-0.4-1.8c-0.2-1.7-0.6-3.3-1.4-3.7
		c-0.2-0.1-0.3-0.2-0.5-0.2c0,0,0,0-0.1,0c-1.6,1.5-2.6,4.5-1.5,7.6c0.2,0.3,0.3,0.6,0.5,0.9c0.3,0.5,0.6,0.9,0.8,1.5
		c0.2,0.4,0.1,0.8-0.2,1.1s-0.6,0.5-1,0.5h-0.5c-0.4,0.2-0.8,0.2-1.3,0.2c-2,0-3.4-1.7-4.2-2.8c-0.2-0.2-0.2-0.2-0.3-0.4
		c-0.2-0.2-0.3-0.5-0.3-0.8c-0.3-6.3,1.7-10.4,6-12.4c1-0.5,2.6-1.1,4.3-1.1c1.1,0,2,0.2,2.9,0.8c4.9,2.9,5.2,11.7,4.6,17.8l0.2-0.5
		c1.7-2.8,3.4-5.6,4.8-8.5c0.2-0.4,0.4-1,0.6-1.6c0.6-1.8,1.2-3.9,2.6-4.5c1.1-1,3-1.4,4.3-1.4c0.3,0,0.7,0.2,0.9,0.4
		c0.2,0.2,0.4,0.6,0.4,0.9c-0.1,1.8-0.1,3.5-0.2,5.2c0,1.7-0.1,3.5-0.1,5.1c0.2,1.8,0.3,3.6,0.5,5.5c0.1,0.6,0.2,1.4,0.2,2
		c3.6-6.4,5.7-10.8,6.4-13.1c1.7-5.1,0.1-7.8-0.9-9.3c-0.2-0.4-0.5-0.7-0.6-1.1c-0.2-0.4-0.2-0.8,0.2-1.2c0.2-0.4,0.6-0.6,1.1-0.6
		h0.4c0.5-0.2,1.1-0.4,1.8-0.4c1.1,0,2.2,0.4,3,0.6c0.2,0.1,0.4,0.2,0.6,0.2c0.3,0.1,0.6,0.2,0.7,0.5c1.9,3,2.2,7.1,0.6,11.1
		c-2.4,6.8-6.1,12.4-9.7,17.7l-0.2,0.2c-0.4,0.5-0.7,1.1-1,1.8c-1.3,2.4-2.9,5.4-6.8,5.4L115.3,53.3z M135.1,52.8
		c-0.8,0-1.4-0.2-2-0.5c-0.9-0.3-1.5-1-1.9-1.9c-1-1.5-0.4-3.7,0-5l0.1-0.3c0.2-0.6,0.4-1.1,0.6-1.7c1-2.7,2.3-6.2,1.4-8.3
		c-0.2-0.4-0.2-0.8,0.1-1.1s0.5-0.6,0.9-0.6c0.2-0.1,0.5-0.2,0.8-0.2c0.8-0.2,1.6-0.4,2.5-0.4c1.7,0,2.5,0.8,2.9,1.5
		c1,1.6,0.2,3.7-0.3,4.8c-0.1,0.2-0.2,0.2-0.2,0.4l-0.2,0.6c-0.8,2.1-1.6,4.2-1.9,6.5c1.4-0.5,3.4-2,4.2-3.3
		c0.2-0.7,0.2-1.4,0.5-2.1c0.2-0.8,0.3-1.4,0.5-2.3c0-0.1,0-0.2,0.1-0.2c0.2-0.9,0.6-1.9,0.9-3c1.1-4,2.4-8.5,4.2-10.9
		c0.6-1,1.7-1.2,2.4-1.4c0.4-0.1,0.7-0.2,1-0.3c0.2-0.2,0.5-0.2,0.7-0.2h2.3c0.7,0,1.3,0.6,1.3,1.3v0.4c0,0.4-0.2,0.8-0.5,1
		c-1.2,0.9-1.8,2.7-2.3,4.5c-0.2,0.6-0.4,1.2-0.6,1.8l-0.3,0.9c-1.5,3.9-3.4,8.8-3.7,13.5c1.4-0.4,3.8-2.3,4.2-3.5
		c0.2-0.6,0.3-1.4,0.5-2.2c0.1-0.8,0.2-1.7,0.5-2.5l0.2-0.3c1-3,2-6.2,3.1-8.9c0.2-0.3,0.2-0.6,0.3-1c0.5-1.5,1.1-3.5,2.8-4.2
		c1.1-0.8,2.6-0.9,4-0.9c0.3,0,0.7,0,1,0c0.7,0,1.2,0.6,1.2,1.3v0.4c0,0.5-0.2,0.8-0.6,1c-1,0.7-1.4,2-2,3.5
		c-0.2,0.5-0.4,1.1-0.6,1.6c-1.3,3-2.3,6.4-3.3,9.8l-0.2,1l-0.1,0.2c-0.4,1.4-1,3.6-0.8,4.9c1-0.2,2.5-1.4,3-2.2
		c0.1-0.2,0.2-0.6,0.3-1c0.7-2.8,2.4-9.2,10.1-10.7c0.6-0.1,1.2-0.2,1.8-0.2c1.9,0,4.2,0.5,5.5,1.6c0.2-0.3,0.5-0.5,0.8-0.6
		c0.2-0.1,0.6-0.2,0.9-0.3c0.8-0.3,1.8-0.6,2.8-0.6c0.8,0,1.4,0.2,2,0.6c1.5,1,1.9,4.4,1.9,10.7c1.2-1.6,2.3-3.1,3-5.1
		c0.2-0.5,0.2-1.4,0.1-2.3c-0.1-0.9-0.1-1.8,0.2-2.4c0.2-0.5,0.6-0.8,1-0.9c0.2,0,0.5-0.2,0.8-0.2c0.6-0.2,1.4-0.4,2.1-0.4
		c0.6,0,1.1,0.2,1.5,0.4c1.3,0.8,1.4,2,1.4,3c0,0.3,0.1,0.6,0.2,0.9c0.4,1.8,0.6,4.4,0.6,7.1c2.2-3,4.2-6.3,2.5-10
		c-0.2-0.6-0.1-1.3,0.5-1.7c0.6-0.4,1-0.5,1.8-0.6c0.3-0.2,0.7-0.2,1.1-0.2c0.6,0,1.1,0.2,1.6,0.3c0.2,0.1,0.2,0.1,0.3,0.2
		c0.3,0.2,0.6,0.3,0.8,0.7c1.4,3,0.2,6.1-1,8.3c-2.3,4.3-4.9,7.6-8.5,11.2c-0.2,0.2-0.5,0.4-0.8,0.4h-0.3c-0.5,0.1-1,0.2-1.6,0.2
		s-2.3,0-3-1.3c-0.2-0.4-0.2-1,0-1.4c0.2-0.5,0.2-2.1,0.2-3.6c-0.2,0.3-0.5,0.7-0.7,1c-0.9,1.2-2,2.3-3,3.3c-0.5,0.5-1,0.9-1.4,1.4
		c-0.2,0.2-0.6,0.4-0.9,0.4c-1.2,0-2-0.2-3-0.2l-1,0.2c-0.6-0.1-1.1-0.6-1.1-1.3v-1c0.1-2.5,0.2-5.2-0.1-7.9
		c-0.1,0.2-0.1,0.5-0.2,0.7v0.1c-1.5,4.9-4.6,8-9.7,9.3c-0.5,0.2-1.5,0.5-2.5,0.5c-0.2,0-0.5,0-0.6-0.1c-2.1-0.5-4-1-5.1-2.7
		c-0.2-0.2-0.2-0.3-0.3-0.5c-1.7,1.5-4.3,2.8-6.5,2.8c-1.7,0-3-0.8-3.8-2.1c-0.1-0.2-0.2-0.3-0.2-0.5c-1.8,1.4-4.2,2.9-6.2,2.9
		c-0.7,0-1.3-0.2-1.8-0.5c-1.4-0.6-1.8-1.7-2-2.7C139.9,51.1,137.3,52.8,135.1,52.8z M168.2,47.8c0.4,0.2,0.7,0.2,1,0.2l0,0
		c0.6,0,1.3-0.4,1.8-1.1c1.7-2.3,2.5-6.7,2-9.4c-0.2-0.2-0.5-0.2-0.8-0.4c-0.1,0.1-0.2,0.1-0.2,0.2c-0.2,0.1-0.2,0.2-0.3,0.2
		C169.4,38.1,167.6,43.9,168.2,47.8z M137.7,31.8c-0.5,0-0.9,0-1.4-0.1c-0.4-0.1-0.7-0.2-1-0.6c-0.6-1-1.4-2.3-1-3.6
		c0.5-1.4,1.8-1.8,3-2.2c0.5-0.2,1-0.3,1.4-0.6c0.2-0.2,0.4-0.2,0.6-0.2c0.2,0,0.2,0,0.3,0.1c0.2,0.1,0.3,0.1,0.5,0.2
		c0.8,0.2,2,0.5,2.6,1.9c0.3,0.6,0.3,1.1,0.3,1.7c0,0.3-0.2,0.6-0.3,0.8C141.5,30.9,140.2,31.8,137.7,31.8L137.7,31.8z"/>
	<path class="st1" d="M131.2,26.9c-2.4,6.8-6.1,12.3-9.7,17.7c-1.7,2.6-2.6,6.7-6.9,6.6c0-0.2,0-0.2,0-0.4c-0.9-1.5-1.1-14.5-1.1-19
		c-0.2,0-0.2,0-0.4,0c0,0.2-2.3,4.4-3.6,6.4c-1.7,2.7-3.7,5.3-5.4,8c-1.4,2.2-2,4.8-5.8,4.9c0.2-6.8,1.7-14.6,0.2-21.3
		c-0.6-2.4-0.5-5.6-2.6-6.4c-0.3-0.3-0.6-0.3-1.4-0.4c-2.2,1.7-3.6,5.5-2.3,9.4c0.3,0.9,1,1.5,1.4,2.5c-0.2,0-0.5,0-0.7,0
		c-2,1.1-3.8-1.6-4.5-2.5c-0.3-5.6,1.2-9.3,5.2-11.1c1.6-0.7,4.2-1.5,6-0.4c6.5,3.9,3.7,21.1,3.2,22.5c0.2,0,0.2,0,0.4,0
		c0-0.2,0-0.2,0-0.2c1.3-1.4,1.8-3.3,2.8-4.8c1.8-3,3.7-6.1,5.2-9.2c0.7-1.5,1.3-5,2.8-5.6c0.7-0.7,2.2-1.1,3.6-1.1
		c-0.2,3.5-0.2,7.1-0.2,10.5c0.3,3.7,0.6,7.3,0.9,11.1c0.2,0,0.2,0,0.4,0c0.9-1.7,6.8-12.1,8.2-16.3c2.3-7.1-1-10-1.5-11.3
		c0.2,0,0.5,0,0.7,0c1.4-0.9,3.5,0.1,4.6,0.4C132.5,19.5,132.5,23.2,131.2,26.9z M235.4,52.5c-3.1-1.4-5.4-8-7-11.3
		c-0.5-1-2.7-4.8-2.3-5.8c0.6-1.4,3-1.9,4.2-2.7c3.8-2.3,9.7-5.1,9.7-11.3c-0.6-0.6-0.6-1.3-1.5-1.5c-0.4-0.3-1-0.4-1.7-0.4
		c-0.5,0.3-1.4,0.2-1.6,0.7c-0.2,0-0.3,0-0.4,0c0.7,1.6,0.5,3.6-0.4,5.1c-1.7,2.7-8.9,8.1-12.4,9c-0.2,0.6-0.3,1.1-0.5,1.7
		c-0.5,1.1,1.6,3.8,2.1,4.8c1.7,3.9,4.7,12.1,7.9,14.2c2.7,1.8,7.2,0.2,8.1-2.1c0.1,0,0.1-0.2,0.2-0.2c0-0.2,0-0.3,0-0.4
		C238,52.7,236.8,53.1,235.4,52.5z M223.2,21.4c-0.4-1.2-1.7-1.2-3.4-1.1c-0.7,0.5-1.9,0.5-2.8,1c-0.2,0.2-0.3,0.2-0.5,0.2
		c0.2,0.6,1.1,0.8,1.7,1.1c0.5,2.3-0.3,4.8-0.9,7.1c-1.4,4.7-2.3,9.2-3.9,13.3c-0.9,2.3-1.2,4.8-2.6,6.8c0.1,0.5,0.2,0.6,0.2,0.9
		c1.7-0.2,4.4-1.1,5.2-2.3c1-1.4,0.9-3.1,1.5-4.7c1.7-4.3,2.6-9.1,4.2-13.7C222.3,28.6,224.4,23,223.2,21.4z M293.1,41.5
		c-1.4,1.4-2.4,3-3.9,4.2c-1.3,0.9-2.4,2.2-3.8,3c-0.2,0-0.3,0-0.4,0c1.1-2.7,2.1-5.9,3-8.7c0.5-1.4,0.3-3.1,1.1-4.2
		c0-1.1-0.1-1.9-0.4-2.7c-1.4-0.3-3.3-0.3-4.2,0.4c-0.2,0.3,0.2,1.7,0,2.5c-0.2,1-0.5,2.3-0.9,3.4c-0.9,2.3-3,5.1-4.8,6.6
		c-0.7,0.5-1.4,0.9-2.1,1.1c-1.6-0.2-1.8-1.1-1.4-2.7c1-3.5,3-7,2.5-11.1c-0.2-0.2-0.2-0.2-0.2-0.2c-1.7-0.3-3.1,0.2-4.5,0.4
		c1.1,5.8-3,12-6.9,13.1c-0.6,0.4-0.8,0.2-1.5,0.2c-0.2-0.2-0.2-0.2-0.2-0.2c0.1-5.5,2.4-12.1,4.2-16.3c1-2.4,1.4-5.3,3.4-6.8
		c0-0.2,0-0.3,0-0.4c-5.9-0.1-6.1,3.1-7.7,7.3c-0.9,2.6-1.8,5.4-2.6,8.1c-0.3,1.4-0.6,2.8-0.9,4.2c-0.9,1.4-3.9,3.9-5.7,4.3
		c-0.3,0.2-0.8,0.2-0.7-0.5c0.1-3.4,1-6.1,1.9-8.7c1.1-3.5,1.7-6.8,3-10c0.5-1.3,2.4-3.7,2.6-4.7c-1.9-0.1-4.2,0.2-5,0.9
		c-1,1-1.1,2.7-1.7,3.9c-1.6,3.7-2.5,7.7-3.8,12.1c-0.5,1.9-2.2,6.8-0.7,8.5c0.3,0.7,0.6,0.8,1.5,1.5c3.7,0,6.6-2.1,8.1-4.3
		c0.3,0.5,0.1,1.2,0.2,1.9c0.2,0.8,0.7,1.4,1.1,2.1c4.2,0.9,7.7-1.9,9.3-4.5c0.8,0.5-0.3,3.6,1.9,4.3c2.3,1.5,8-2.7,8.9-3.9
		c0.2,0,0.2,0,0.2,0c-0.2,1.5-1.6,5.7-2.5,6.6c-0.5,0.6-1.5,0.8-2.1,1.4c-0.6,0.5-1.4,1.5-2.1,2.3c0,1.8,0.2,3.3,1.5,3.8
		c0.9,0.5,3.8-2.1,4.3-2.8c1.1-1.4,1.7-3.2,2.8-4.5c0.7-0.8,3.2-2.3,4.2-3c2-1.5,3.4-3.9,5-5.8C293.2,42.8,293.1,42.1,293.1,41.5z
		 M141.3,27.4c0-0.5,0-0.8-0.2-1.1c-0.4-1.1-1.1-1.1-2.3-1.4c-2,1.1-5.4,0.8-3,4.5C138.9,29.8,139.9,29.2,141.3,27.4z M202.3,32.2
		c-0.9,0.1-1.1,0.2-1.5,0.4c2.8,5.9-2.7,10.9-4.8,14.5c-0.2,0-0.3,0-0.4,0c0.6-3.1,0.4-8-0.2-10.8c-0.2-1.4,0-2.4-0.9-3
		c-1-0.6-2.6,0.2-3.6,0.4c-0.3,1,0.2,3.3-0.2,4.7c-1.1,3.6-3.5,5.7-5.2,8.5c-0.2,0-0.2,0-0.2,0c0-3.3,0.3-12.3-1.4-13.3
		c-1.4-1-3.4,0.2-4.6,0.5c2.4,4,2,10.9,1.9,16.2c1.4,0.2,2.3,0.3,3.7,0.3c1.4-1.5,3.1-3,4.3-4.5c0.9-1.3,1.5-2.7,2.6-3.6
		c0-0.2,0-0.2,0-0.2c0.2,0,0.2,0,0.2,0c0.1,1.7,0.6,6.4-0.2,7.7c0.6,0.9,2.6,0.6,3.8,0.5c3.3-3.4,5.9-6.4,8.2-10.9
		c1-1.9,2.1-4.6,0.9-7.1C203.9,32.2,203,31.6,202.3,32.2z M249.5,44c0,0.8,0,1.7,0,2.5c0,0.3-0.2,0.3-0.2,0.4
		c-1.4,0.8-2.7,2.2-4.3,2.8c-3.8,1.4-9.2,0.9-10.5-2.3c-2.3-5.5,3.3-11.8,6.4-13.3c0.9-0.5,1.1-0.5,2.8-0.9c2.5-0.2,4.3-0.1,5.2,1.7
		c0.8,1.4,0,3.5-0.5,4.3c-1.9,3-4.5,4.1-9.5,3.9c-0.7,2.5,0.5,4.3,1.4,4.5C243.1,50,248.2,44.9,249.5,44z M239.2,41.7
		c3.7,0,6.6-2.8,5.7-6.6c-0.4-0.7-1.1-0.7-1.7-0.4C241.4,36.4,239.5,38.3,239.2,41.7z M177.7,34.7c1.1,1.4,1.3,4.8,0.8,6.9
		c-1.4,4.5-4.2,7.2-8.8,8.5c-0.6,0.2-1.7,0.5-2.6,0.4c-1.8-0.4-3.4-0.8-4.3-2.1c-0.5-0.6-0.4-1.5-1.1-1.9c-1.7,2.6-7.7,5.5-9.3,2.3
		c-0.4-0.7,0.1-1.9-0.4-2.7c-0.9,1.4-6.1,5.5-8.5,3.9c-2.2-0.8-0.7-3.1-1.9-3.9c-1,1.4-6.1,5.6-8.6,3.9c-0.7-0.2-1.1-0.7-1.4-1.4
		c-0.9-1.1-0.2-3.3,0.2-4.3c1-3,3.3-7.8,1.9-10.9c1.5-0.2,4.2-1.2,4.8,0.4c0.8,1.2-0.2,3.3-0.5,4.2c-1.1,2.7-2.2,5.4-2.3,8.8
		c1.9,0.6,5.6-2.1,6.7-4.2c0.3-1.5,0.6-3,0.9-4.5c1.2-3.9,2.7-10.7,4.8-13.5c0.6-1,2-0.7,3-1.4c0.7,0,1.5,0,2.3,0c0,0.2,0,0.3,0,0.4
		c-1.9,1.4-2.5,4.4-3.4,6.9c-1.7,4.3-4.1,10.4-4.2,15.9c1.9,1.1,5.9-2.3,6.7-4.2c0.6-1.5,0.4-3.1,0.9-4.7c1-3.1,2-6.4,3.2-9.2
		c0.6-1.7,1-3.9,2.6-4.5c0.9-0.8,2.7-0.8,4.3-0.7c0,0.2,0,0.3,0,0.4c-1.7,1.2-2.1,3.5-3,5.6c-1.4,3.3-2.6,7.3-3.6,10.9
		c-0.5,2-1.4,4.8-0.7,6.6c1.4,0.8,4.3-1.4,5-2.7c0.8-1.2,1-9.6,9.5-11.1C173.5,32.8,176.6,33.4,177.7,34.7z M173.7,35.9
		c-0.7-0.4-1.1-0.7-2.1-0.9c-0.2,0.2-0.6,0.3-0.7,0.4c-3.4,1-5.3,8-4.3,12.5C172,51.3,174.8,40.8,173.7,35.9z"/>
</g>
</svg>
