<?xml version="1.0" encoding="utf-8"?>
<!-- Generator: Adobe Illustrator 24.0.1, SVG Export Plug-In . SVG Version: 6.00 Build 0)  -->
<svg version="1.1" id="Layer_1" xmlns="http://www.w3.org/2000/svg" xmlns:xlink="http://www.w3.org/1999/xlink" x="0px" y="0px"
	 viewBox="0 0 200 192" style="enable-background:new 0 0 200 192;" xml:space="preserve">
<style type="text/css">
	.st0{fill:#FFFFFF;}
	.st1{fill:#A02E92;}
</style>
<g>
	<path class="st0" d="M163.77,105.23L88.44,29.9c-5.37-5.37-5.37-14.07,0-19.44l0,0c5.37-5.37,14.07-5.37,19.44,0l75.33,75.33
		c5.37,5.37,5.37,14.07,0,19.44l0,0C177.84,110.6,169.14,110.6,163.77,105.23z"/>
	<path class="st0" d="M13.11,85.79l75.33-75.33c5.37-5.37,14.07-5.37,19.44,0l0,0c5.37,5.37,5.37,14.07,0,19.44l-75.33,75.33
		c-5.37,5.37-14.07,5.37-19.44,0l0,0C7.74,99.86,7.74,91.16,13.11,85.79z"/>
	<path class="st0" d="M84.41,175.27V21.48c0-7.59,6.15-13.75,13.75-13.75h0c7.59,0,13.75,6.15,13.75,13.75v153.79
		c0,7.59-6.15,13.75-13.75,13.75h0C90.57,189.01,84.41,182.86,84.41,175.27z"/>
</g>
<rect x="32" y="272" class="st1" width="48" height="33.33"/>
</svg>
