<?xml version="1.0" encoding="utf-8"?>
<!-- Generator: Adobe Illustrator 24.0.1, SVG Export Plug-In . SVG Version: 6.00 Build 0)  -->
<svg version="1.1" id="Layer_1" xmlns="http://www.w3.org/2000/svg" xmlns:xlink="http://www.w3.org/1999/xlink" x="0px" y="0px"
	 viewBox="0 0 200 192" style="enable-background:new 0 0 200 192;" xml:space="preserve">
<style type="text/css">
	.st0{fill:#FFFFFF;}
	.st1{fill:#A02E92;}
</style>
<path class="st0" d="M121.5,30.4l-75.3,75.3c-5.4,5.4-14.1,5.4-19.4,0l0,0c-5.4-5.4-5.4-14.1,0-19.4l75.3-75.3
	c5.4-5.4,14.1-5.4,19.4,0l0,0C126.9,16.3,126.9,25,121.5,30.4z"/>
<path class="st0" d="M102.1,181.1l-75.3-75.3c-5.4-5.4-5.4-14.1,0-19.4l0,0c5.4-5.4,14.1-5.4,19.4,0l75.3,75.3
	c5.4,5.4,5.4,14.1,0,19.4l0,0C116.1,186.4,107.4,186.4,102.1,181.1z"/>
<rect x="288.3" y="114.2" class="st1" width="33.3" height="48"/>
</svg>
