<?xml version="1.0" encoding="utf-8"?>
<!-- Generator: Adobe Illustrator 24.0.1, SVG Export Plug-In . SVG Version: 6.00 Build 0)  -->
<svg version="1.1" id="Layer_1" xmlns="http://www.w3.org/2000/svg" xmlns:xlink="http://www.w3.org/1999/xlink" x="0px" y="0px"
	 viewBox="0 0 200 192" style="enable-background:new 0 0 200 192;" xml:space="preserve">
<style type="text/css">
	.st0{fill:#FFFFFF;}
	.st1{fill:#A02E92;}
</style>
<path class="st0" d="M73.4,161.6l75.3-75.3c5.4-5.4,14.1-5.4,19.4,0l0,0c5.4,5.4,5.4,14.1,0,19.4l-75.3,75.3
	c-5.4,5.4-14.1,5.4-19.4,0l0,0C68,175.7,68,167,73.4,161.6z"/>
<path class="st0" d="M92.8,11l75.3,75.3c5.4,5.4,5.4,14.1,0,19.4l0,0c-5.4,5.4-14.1,5.4-19.4,0L73.4,30.4C68,25,68,16.3,73.4,11l0,0
	C78.7,5.6,87.4,5.6,92.8,11z"/>
<rect x="-126.7" y="29.8" class="st1" width="33.3" height="48"/>
</svg>
