<?xml version="1.0" encoding="utf-8"?>
<!-- Generator: Adobe Illustrator 21.1.0, SVG Export Plug-In . SVG Version: 6.00 Build 0)  -->
<svg version="1.1" id="Layer_1" xmlns="http://www.w3.org/2000/svg" xmlns:xlink="http://www.w3.org/1999/xlink" x="0px" y="0px"
	 viewBox="0 0 53.5 51.1" style="enable-background:new 0 0 53.5 51.1;" xml:space="preserve">
<style type="text/css">
	.st0{fill:#324142;}
</style>
<g>
	<path d="M176.6,0.6c1,1,6.1-0.4,6.1-0.4l26-6.3c1.7-1.1,2.4-1.9,2.4-3.3c0-2.8,0-4.9-0.7-7.4l-46.5-25.9l10.6,37.6
		C174.5-5.1,175.6-0.4,176.6,0.6z"/>
</g>
<path d="M183.3,2.4c-1.7,0.2-3.6,0.9-5.4,1.3c-3,0.6-4.7-2.4-5.4-4.9c-0.2-0.8-0.4-1.6-0.6-2.5l-33.2,8.1l42.8,23.9l8.8-4L183.3,2.4
	z"/>
<path d="M139.4,1.1L162-40.3c0,0,9.8,33.3,9.4,33.3C171-7,139.4,1.1,139.4,1.1z"/>
<path d="M187.7,1.8l5.4,20.2c0,0,17.6-23,18-26.6L187.7,1.8z"/>
<path class="st0" d="M26.6,1.1C13.3,1.1,2.5,11.9,2.5,25.2s10.8,24.1,24.1,24.1c13.3,0,24.1-10.8,24.1-24.1S39.9,1.1,26.6,1.1z
	 M40.2,41.2c-1.4,2.5-4.6,3.5-7.1,2.1L10.6,31.2c-2.5-1.4-3.5-4.6-2.1-7.1l7.8-14.6l9,19l1,2.1l2.3-0.3l18.9-2.6L40.2,41.2z
	 M28.4,26.8L18.7,6.5c1.6-0.9,3.6-1,5.2-0.1l22.5,12.1c2,1.1,3,3.3,2.7,5.4L28.4,26.8z"/>
<path d="M126.1-174.9H67.8c-6.6,0-12-5.4-12-12v-40.2c0-6.6,5.4-12,12-12h58.3c6.6,0,12,5.4,12,12v40.2
	C138.1-180.3,132.7-174.9,126.1-174.9z"/>
<rect x="65.3" y="-263.9" transform="matrix(0.7071 -0.7071 0.7071 0.7071 175.1047 -15.5225)" width="7.1" height="89.5"/>
<rect x="82.3" y="-222.7" transform="matrix(0.7071 -0.7071 0.7071 0.7071 192.1841 25.653)" width="89.5" height="7.1"/>
<path d="M157.8-328H99.5c-6.6,0-12-5.4-12-12v-40.2c0-6.6,5.4-12,12-12h58.3c6.6,0,12,5.4,12,12v40.2
	C169.8-333.4,164.4-328,157.8-328z"/>
<polygon points="182.2,-390 130.5,-352.1 78.8,-390 74.3,-382.9 126,-345 130.5,-341.7 134.9,-345 186.6,-382.9 "/>
</svg>
