<?xml version="1.0" encoding="utf-8"?>
<!-- Generator: Adobe Illustrator 24.0.1, SVG Export Plug-In . SVG Version: 6.00 Build 0)  -->
<svg version="1.1" id="Layer_1" xmlns="http://www.w3.org/2000/svg" xmlns:xlink="http://www.w3.org/1999/xlink" x="0px" y="0px"
	 viewBox="0 0 50 50" style="enable-background:new 0 0 50 50;" xml:space="preserve">
<style type="text/css">
	.st0{fill:#500942;}
</style>
<g>
	<path class="st0" d="M25.1,35c5.2,0,9.4-4.2,9.4-9.4c0-5.2-4.3-9.4-9.4-9.4c-5.2,0-9.4,4.2-9.4,9.4C15.7,30.8,19.9,35,25.1,35z
		 M25.1,19.5c3.3,0,6.1,2.7,6.1,6.1c0,3.4-2.8,6.1-6.1,6.1c-3.3,0-6.1-2.7-6.1-6.1C19,22.2,21.7,19.5,25.1,19.5z"/>
	<path class="st0" d="M34.8,18c1.2,0,2.1-0.9,2.1-2.1c0-1.2-0.9-2.1-2.1-2.1s-2.1,0.9-2.1,2.1C32.7,17.1,33.6,18,34.8,18z"/>
	<path class="st0" d="M17.4,43.6h15.2c5.7,0,10.4-4.7,10.4-10.4V18c0.1-5.7-4.6-10.4-10.3-10.4H17.4C11.7,7.6,7,12.3,7,18v15.2
		C7,38.9,11.7,43.6,17.4,43.6z M10.3,18c0-3.9,3.2-7.1,7.1-7.1h15.2c3.9,0,7.1,3.2,7.1,7.1v15.2h0.1c0,3.9-3.2,7.1-7.1,7.1H17.4
		c-3.9,0-7.1-3.2-7.1-7.1V18z"/>
</g>
</svg>
