<?xml version="1.0" encoding="utf-8"?>
<!-- Generator: Adobe Illustrator 24.0.1, SVG Export Plug-In . SVG Version: 6.00 Build 0)  -->
<svg version="1.1" id="Layer_1" xmlns="http://www.w3.org/2000/svg" xmlns:xlink="http://www.w3.org/1999/xlink" x="0px" y="0px"
	 viewBox="0 0 50 50" style="enable-background:new 0 0 50 50;" xml:space="preserve">
<style type="text/css">
	.st0{fill:#500942;}
</style>
<path class="st0" d="M8.2,37.2c3,2,6.6,3.1,10.6,3.1c12.7,0,19.7-10.6,19.7-19.7c0-0.3,0-0.5,0-0.8c1.3-1,2.5-2.3,3.4-3.6
	c-1.2,0.5-2.6,0.9-3.9,1c1.4-0.9,2.5-2.2,2.9-3.9c-1.3,0.7-2.8,1.3-4.3,1.7c-1.2-1.3-3-2.2-5.1-2.2c-3.8,0-6.9,3-6.9,6.9
	c0,0.5,0.1,1,0.2,1.7c-5.7-0.3-10.8-3-14.2-7.2c-0.5,1-0.9,2.2-0.9,3.5c0,2.4,1.2,4.5,3,5.7c-1.1,0-2.2-0.4-3.1-0.8v0.1
	c0,3.3,2.4,6.2,5.5,6.7c-0.5,0.2-1.1,0.3-1.8,0.3c-0.5,0-0.8,0-1.3-0.1c0.8,2.8,3.4,4.8,6.4,4.8c-2.4,1.8-5.3,2.9-8.5,2.9
	C9.4,37.3,8.8,37.3,8.2,37.2z"/>
</svg>
