<?xml version="1.0" encoding="utf-8"?>
<!-- Generator: Adobe Illustrator 24.0.1, SVG Export Plug-In . SVG Version: 6.00 Build 0)  -->
<svg version="1.1" id="Layer_1" xmlns="http://www.w3.org/2000/svg" xmlns:xlink="http://www.w3.org/1999/xlink" x="0px" y="0px"
	 viewBox="0 0 50 50" style="enable-background:new 0 0 50 50;" xml:space="preserve">
<style type="text/css">
	.st0{fill:#500942;}
</style>
<path class="st0" d="M43,34.5c0-0.1,0-0.4,0.1-0.5c0.1-1.6,0.5-4.8,0.5-8.5s-0.2-7-0.4-8.5c0-0.1,0-0.4-0.1-0.5v-0.1
	c-0.5-1.4-1.7-2.3-3.4-2.3h0.4c0,0-6.1-0.9-14.3-0.9c-8.1,0-14.3,0.9-14.3,0.9h0.4c-1.6,0-2.8,0.9-3.3,2.3v0.1c0,0.1,0,0.4-0.1,0.5
	c-0.2,1.5-0.6,4.8-0.6,8.5s0.5,7,0.5,8.5c0,0.1,0,0.4,0.1,0.5v0.1c0.5,1.4,1.7,2.3,3.4,2.3h-0.4c0,0,6.1,0.9,14.3,0.9
	c8.1,0,14.3-0.9,14.3-0.9h-0.4C41.3,36.9,42.5,36,43,34.5z M31.1,26.3l-7.3,5.3c-0.1,0.1-0.4,0.1-0.5,0.1c-0.1,0-0.4,0-0.5-0.1
	c-0.4-0.2-0.5-0.5-0.5-0.8V20.1c0-0.4,0.1-0.5,0.5-0.8c0.4-0.1,0.5-0.1,0.9,0l7.3,5.3c0.1,0.1,0.4,0.5,0.4,0.8
	C31.5,25.9,31.3,26,31.1,26.3z"/>
</svg>
